<svg width="51" height="51" viewBox="0 0 51 51" fill="none" xmlns="http://www.w3.org/2000/svg">
<rect x="0.657227" y="0.507568" width="50" height="50" rx="10" fill="#50C878"/>
<g clip-path="url(#clip0_0_774)">
<path d="M12.875 37.2739H39.125V39.0239H12.875V37.2739ZM16.8125 22.3989C16.4644 22.3989 16.1306 22.5372 15.8844 22.7834C15.6383 23.0295 15.5 23.3633 15.5 23.7114V35.5239H20.75V23.7114C20.75 23.3633 20.6117 23.0295 20.3656 22.7834C20.1194 22.5372 19.7856 22.3989 19.4375 22.3989H16.8125ZM24.6875 29.3989C24.3394 29.3989 24.0056 29.5372 23.7594 29.7834C23.5133 30.0295 23.375 30.3633 23.375 30.7114V35.5239H28.625V30.7114C28.625 30.3633 28.4867 30.0295 28.2406 29.7834C27.9944 29.5372 27.6606 29.3989 27.3125 29.3989H24.6875ZM32.5625 32.0239C32.2144 32.0239 31.8806 32.1622 31.6344 32.4084C31.3883 32.6545 31.25 32.9883 31.25 33.3364V35.5239H36.5V33.3364C36.5 32.9883 36.3617 32.6545 36.1156 32.4084C35.8694 32.1622 35.5356 32.0239 35.1875 32.0239H32.5625ZM23.6375 24.2189C23.9283 25.1868 24.4571 26.0663 25.1755 26.7771C25.894 27.4879 26.7791 28.0072 27.75 28.2877C28.32 28.4451 28.9087 28.5246 29.5 28.5239C31.1245 28.5239 32.6824 27.8786 33.831 26.73C34.9797 25.5813 35.625 24.0234 35.625 22.3989C35.625 22.1669 35.5328 21.9443 35.3687 21.7802C35.2046 21.6161 34.9821 21.5239 34.75 21.5239H31.6875C31.3394 21.5239 31.0056 21.3857 30.7594 21.1395C30.5133 20.8934 30.375 20.5595 30.375 20.2114V17.1489C30.375 16.9169 30.2828 16.6943 30.1187 16.5302C29.9546 16.3661 29.7321 16.2739 29.5 16.2739C28.5864 16.2721 27.684 16.4747 26.8589 16.8668C26.0338 17.259 25.3068 17.8307 24.7312 18.5402C24.1008 19.3264 23.6717 20.2545 23.4811 21.2441C23.2905 22.2337 23.3442 23.2548 23.6375 24.2189Z" fill="white"/>
<path d="M33 19.7739H38.25C38.4821 19.7739 38.7046 19.6817 38.8687 19.5176C39.0328 19.3535 39.125 19.131 39.125 18.8989C39.125 17.2745 38.4797 15.7166 37.331 14.5679C36.1824 13.4192 34.6245 12.7739 33 12.7739C32.7679 12.7739 32.5454 12.8661 32.3813 13.0302C32.2172 13.1943 32.125 13.4169 32.125 13.6489V18.4702C32.125 19.3802 32.5187 19.7739 33 19.7739ZM12.875 12.7739H25.125V14.5239H12.875V12.7739ZM12.875 16.2739H20.75V18.0239H12.875V16.2739Z" fill="white"/>
</g>
<defs>
<clipPath id="clip0_0_774">
<rect width="28" height="28" fill="white" transform="translate(12 11.8989)"/>
</clipPath>
</defs>
</svg>
