<svg width="177" height="53" viewBox="0 0 177 53" fill="none" xmlns="http://www.w3.org/2000/svg">
<g clip-path="url(#clip0_1_888)">
<path fill-rule="evenodd" clip-rule="evenodd" d="M14.0641 2.24961e-06H162.453C162.984 2.24961e-06 163.522 -0.000167723 164.052 0.00244723C164.419 0.0045284 164.794 0.0100159 165.164 0.0154323C165.247 0.0166514 165.33 0.0178669 165.412 0.0190391C166.401 0.0287769 167.387 0.106042 168.362 0.250149C169.341 0.39779 170.29 0.674095 171.177 1.06994C172.951 1.87757 174.395 3.15782 175.305 4.73062C175.75 5.5143 176.058 6.35341 176.219 7.21917C176.383 8.08445 176.475 8.9594 176.492 9.83674C176.498 10.2377 176.498 10.6399 176.498 11.0408C176.51 11.5145 176.51 11.9895 176.51 12.4683V39.8321C176.51 40.3148 176.51 40.7872 176.498 41.2622C176.498 41.6682 176.498 42.0614 176.492 42.4675C176.475 43.3448 176.383 44.2197 176.219 45.085C176.059 45.9513 175.751 46.7908 175.305 47.5748C174.853 48.3551 174.265 49.0673 173.562 49.6855C172.865 50.309 172.06 50.8293 171.177 51.2266C170.29 51.6235 169.341 51.9015 168.362 52.0514C167.387 52.1943 166.401 52.2716 165.412 52.2825C164.963 52.2914 164.502 52.2965 164.052 52.2965C163.522 52.2991 162.984 52.2991 162.453 52.2991H14.0641C13.5232 52.2991 12.9887 52.2991 12.4493 52.2965C11.9977 52.2965 11.5497 52.2914 11.0938 52.2825C10.1034 52.271 9.11535 52.1937 8.13796 52.0514C7.16199 51.9025 6.21681 51.6245 5.33408 51.2266C4.45028 50.8295 3.64416 50.3092 2.9465 49.6855C2.24239 49.0697 1.65548 48.357 1.20858 47.5748C0.759806 46.7914 0.448908 45.9518 0.286674 45.085C0.122448 44.2199 0.0340747 43.3448 0.0223469 42.4675C0.012995 42.1901 0.00935761 41.9186 0.0056914 41.645C0.00399134 41.5181 0.00228509 41.3908 0 41.2622V11.0408C0.00231217 10.9123 0.0040317 10.7836 0.00575184 10.6549C0.00939776 10.3821 0.0130464 10.1092 0.0223469 9.83679C0.0340711 8.95952 0.122445 8.08438 0.286674 7.21922C0.449358 6.35296 0.760237 5.51378 1.20858 4.73067C1.65568 3.94599 2.24251 3.23031 2.9465 2.61113C3.64681 1.9902 4.45241 1.47022 5.33408 1.07006C6.21682 0.673243 7.1621 0.396865 8.13796 0.250267C9.11518 0.106792 10.1033 0.0295536 11.0938 0.0192222C11.1884 0.0178948 11.2828 0.0165157 11.3768 0.01514C11.7359 0.00988919 12.0915 0.00468928 12.4493 0.00261721C12.9888 2.24967e-06 13.5232 2.24961e-06 14.0641 2.24961e-06ZM10.9933 51.145C11.44 51.1539 11.8793 51.159 12.3295 51.159L162.586 51.1616L164.187 51.159C164.627 51.159 165.08 51.1539 165.513 51.145C166.439 51.1351 167.362 51.0638 168.275 50.9317C169.133 50.803 169.964 50.5606 170.74 50.2127C171.506 49.8682 172.204 49.4167 172.808 48.8756C173.412 48.3451 173.919 47.7335 174.308 47.0634C174.699 46.3759 174.968 45.6393 175.106 44.8795C175.257 44.078 175.341 43.2679 175.359 42.4555C175.364 42.0546 175.364 41.665 175.364 41.2397C175.376 40.7723 175.376 40.3087 175.376 39.8336V12.4641C175.376 11.9935 175.376 11.5267 175.364 11.0363C175.364 10.6404 175.364 10.2426 175.36 9.87225C175.342 9.04515 175.257 8.22029 175.103 7.40425C174.964 6.65428 174.697 5.92726 174.312 5.24787C173.525 3.88924 172.278 2.78265 170.744 2.0832C169.966 1.73727 169.134 1.49581 168.275 1.36675C167.367 1.23488 166.449 1.1638 165.529 1.15413L164.18 1.13752H12.3302L10.997 1.15348C10.0685 1.16367 9.14212 1.23538 8.22573 1.36803C7.37575 1.49549 6.55224 1.73528 5.7828 2.07937C5.01735 2.42644 4.31815 2.87764 3.71071 3.41651C3.10259 3.95031 2.59606 4.56768 2.21075 5.24468C1.81956 5.92879 1.54876 6.66179 1.40774 7.4183C1.25619 8.22769 1.17442 9.04612 1.16316 9.8665C1.15451 10.1321 1.14145 11.0363 1.14145 11.0363V41.2461C1.14145 41.2461 1.15371 42.1644 1.16308 42.4402C1.17485 43.2619 1.25709 44.0816 1.4091 44.8923C1.54986 45.6467 1.82045 46.3776 2.21143 47.0595C2.59816 47.737 3.10752 48.3539 3.71933 48.8858C4.32241 49.424 5.01937 49.8729 5.78352 50.2152C6.55474 50.5604 7.37981 50.8019 8.2315 50.9317C9.1449 51.0631 10.068 51.1344 10.9933 51.145Z" fill="#A6A6A6"/>
<path d="M12.3295 51.159C11.8793 51.159 11.44 51.1539 10.9934 51.145C10.0681 51.1344 9.14493 51.0631 8.23153 50.9317C7.37984 50.8019 6.55477 50.5604 5.78355 50.2152C5.0194 49.8729 4.32244 49.424 3.71936 48.8858C3.10755 48.3539 2.59819 47.7369 2.21146 47.0595C1.82048 46.3776 1.54989 45.6467 1.40913 44.8923C1.25712 44.0816 1.17488 43.2619 1.16311 42.4402C1.15374 42.1644 1.14148 41.2461 1.14148 41.2461V11.0363C1.14148 11.0363 1.15454 10.1321 1.16319 9.86649C1.17445 9.04612 1.25622 8.22769 1.40777 7.41829C1.54879 6.66178 1.81959 5.92879 2.21078 5.24468C2.59609 4.56767 3.10262 3.9503 3.71074 3.41651C4.31818 2.87763 5.01738 2.42644 5.78283 2.07937C6.55227 1.73528 7.37578 1.49549 8.22576 1.36803C9.14215 1.23538 10.0685 1.16366 10.997 1.15348L12.3302 1.13751H164.18L165.529 1.15412C166.449 1.1638 167.367 1.23487 168.275 1.36675C169.134 1.4958 169.966 1.73727 170.744 2.0832C172.278 2.78265 173.525 3.88924 174.312 5.24787C174.697 5.92725 174.964 6.65427 175.103 7.40425C175.257 8.22028 175.342 9.04515 175.36 9.87225C175.364 10.2426 175.364 10.6404 175.364 11.0363C175.376 11.5267 175.376 11.9935 175.376 12.4641V39.8336C175.376 40.3087 175.376 40.7723 175.364 41.2397C175.364 41.665 175.364 42.0546 175.359 42.4555C175.341 43.2679 175.257 44.078 175.106 44.8795C174.968 45.6393 174.699 46.3759 174.308 47.0634C173.919 47.7335 173.412 48.3451 172.808 48.8755C172.204 49.4167 171.506 49.8682 170.74 50.2127C169.964 50.5606 169.133 50.803 168.275 50.9317C167.362 51.0638 166.439 51.1351 165.513 51.145C165.08 51.1539 164.627 51.159 164.187 51.159L162.586 51.1616L12.3295 51.159Z" fill="black"/>
<path d="M42.8818 26.5426C42.8959 25.4513 43.1858 24.3813 43.7245 23.4321C44.2632 22.4829 45.0332 21.6854 45.963 21.1139C45.3723 20.2703 44.5932 19.5761 43.6873 19.0864C42.7814 18.5967 41.7739 18.3249 40.7446 18.2927C38.5491 18.0623 36.4206 19.6065 35.3017 19.6065C34.1613 19.6065 32.4387 18.3156 30.5837 18.3538C29.3839 18.3925 28.2145 18.7414 27.1896 19.3665C26.1647 19.9916 25.3192 20.8714 24.7354 21.9204C22.2068 26.2984 24.0929 32.7326 26.5152 36.2714C27.7271 38.0043 29.1435 39.9399 30.9967 39.8713C32.8103 39.7961 33.4876 38.7148 35.6767 38.7148C37.8455 38.7148 38.481 39.8713 40.3719 39.8276C42.3179 39.796 43.544 38.0871 44.7134 36.3378C45.5841 35.1031 46.2542 33.7384 46.6987 32.2944C45.5681 31.8162 44.6033 31.0158 43.9245 29.993C43.2458 28.9701 42.8832 27.7701 42.8818 26.5426V26.5426Z" fill="white"/>
<path d="M39.3102 15.9654C40.3713 14.6916 40.894 13.0544 40.7674 11.4015C39.1464 11.5717 37.649 12.3465 36.5736 13.5714C36.0478 14.1698 35.6451 14.8659 35.3885 15.62C35.1319 16.3742 35.0265 17.1714 35.0782 17.9663C35.889 17.9747 36.6912 17.7989 37.4242 17.4523C38.1573 17.1058 38.8021 16.5973 39.3102 15.9654Z" fill="white"/>
<path d="M65.8063 35.4845H59.6175L58.1312 39.873H55.5099L61.3718 23.6368H64.0953L69.9573 39.873H67.2912L65.8063 35.4845ZM60.2584 33.4595H65.1641L62.7458 26.3373H62.6781L60.2584 33.4595Z" fill="white"/>
<path d="M82.6171 33.9549C82.6171 37.6335 80.6482 39.9969 77.677 39.9969C76.9244 40.0362 76.1758 39.8629 75.5171 39.4966C74.8584 39.1303 74.3162 38.5859 73.9525 37.9258H73.8963V43.789H71.4664V28.0355H73.8184V30.0044H73.8631C74.2435 29.3474 74.7949 28.8058 75.4586 28.4373C76.1224 28.0688 76.8736 27.8872 77.6323 27.9116C80.6367 27.9116 82.6171 30.2865 82.6171 33.9549ZM80.1196 33.9549C80.1196 31.5583 78.881 29.9827 76.9913 29.9827C75.1348 29.9827 73.8861 31.5915 73.8861 33.9549C73.8861 36.34 75.1348 37.9373 76.9913 37.9373C78.8811 37.9373 80.1196 36.3732 80.1196 33.9549Z" fill="white"/>
<path d="M95.6459 33.9549C95.6459 37.6335 93.677 39.9969 90.7058 39.9969C89.9532 40.0362 89.2046 39.8629 88.5459 39.4966C87.8872 39.1303 87.345 38.5859 86.9813 37.9258H86.9251V43.789H84.4953V28.0355H86.8472V30.0044H86.8919C87.2723 29.3474 87.8237 28.8059 88.4874 28.4373C89.1511 28.0688 89.9023 27.8872 90.6611 27.9116C93.6655 27.9116 95.6459 30.2865 95.6459 33.9549ZM93.1484 33.9549C93.1484 31.5583 91.9099 29.9827 90.0202 29.9827C88.1636 29.9827 86.9149 31.5915 86.9149 33.9549C86.9149 36.34 88.1636 37.9373 90.0202 37.9373C91.9099 37.9373 93.1484 36.3732 93.1484 33.9549Z" fill="white"/>
<path d="M104.257 35.3492C104.437 36.9593 106.001 38.0164 108.138 38.0164C110.186 38.0164 111.66 36.9592 111.66 35.5075C111.66 34.2472 110.771 33.4926 108.667 32.9755L106.563 32.4686C103.581 31.7485 102.197 30.3541 102.197 28.0916C102.197 25.2902 104.639 23.366 108.105 23.366C111.536 23.366 113.888 25.2902 113.967 28.0916H111.514C111.368 26.4713 110.028 25.4932 108.071 25.4932C106.113 25.4932 104.774 26.4828 104.774 27.9231C104.774 29.0709 105.629 29.7464 107.722 30.2634L109.511 30.7027C112.842 31.4905 114.226 32.8286 114.226 35.2035C114.226 38.2411 111.807 40.1436 107.958 40.1436C104.358 40.1436 101.927 38.2858 101.77 35.3491L104.257 35.3492Z" fill="white"/>
<path d="M119.47 25.2341V28.0355H121.721V29.9597H119.47V36.4856C119.47 37.4994 119.921 37.9718 120.911 37.9718C121.178 37.9671 121.445 37.9484 121.71 37.9156V39.8283C121.265 39.9114 120.813 39.9491 120.36 39.9406C117.964 39.9406 117.029 39.0405 117.029 36.7447V29.9597H115.308V28.0355H117.029V25.2341H119.47Z" fill="white"/>
<path d="M123.025 33.9549C123.025 30.2304 125.219 27.8899 128.639 27.8899C132.071 27.8899 134.255 30.2303 134.255 33.9549C134.255 37.6896 132.083 40.0198 128.639 40.0198C125.197 40.0198 123.025 37.6896 123.025 33.9549ZM131.779 33.9549C131.779 31.3999 130.608 29.892 128.639 29.892C126.67 29.892 125.501 31.4114 125.501 33.9549C125.501 36.52 126.67 38.0165 128.639 38.0165C130.608 38.0165 131.779 36.52 131.779 33.9549Z" fill="white"/>
<path d="M136.258 28.0355H138.576V30.0503H138.632C138.789 29.421 139.157 28.8649 139.676 28.4754C140.194 28.086 140.831 27.8869 141.479 27.9116C141.759 27.9106 142.038 27.941 142.312 28.0023V30.275C141.958 30.167 141.589 30.1174 141.22 30.1282C140.867 30.1139 140.515 30.1761 140.188 30.3106C139.862 30.4452 139.568 30.6488 139.327 30.9075C139.087 31.1663 138.905 31.474 138.795 31.8096C138.684 32.1452 138.648 32.5007 138.688 32.8517V39.873H136.258L136.258 28.0355Z" fill="white"/>
<path d="M153.515 36.3962C153.188 38.5451 151.095 40.0198 148.417 40.0198C144.974 40.0198 142.836 37.7126 142.836 34.0111C142.836 30.298 144.985 27.8899 148.315 27.8899C151.59 27.8899 153.65 30.1397 153.65 33.7289V34.5614H145.289V34.7082C145.251 35.1439 145.305 35.5827 145.449 35.9957C145.593 36.4086 145.824 36.7862 146.125 37.1033C146.426 37.4205 146.791 37.6699 147.196 37.835C147.601 38.0002 148.037 38.0773 148.474 38.0612C149.048 38.115 149.624 37.982 150.117 37.682C150.609 37.382 150.992 36.931 151.207 36.3962L153.515 36.3962ZM145.301 32.8632H151.219C151.241 32.4715 151.181 32.0795 151.044 31.7118C150.908 31.3441 150.696 31.0087 150.424 30.7266C150.151 30.4445 149.823 30.2218 149.46 30.0724C149.097 29.9231 148.708 29.8504 148.315 29.8588C147.92 29.8564 147.527 29.9325 147.161 30.0825C146.795 30.2325 146.462 30.4536 146.182 30.7329C145.902 31.0122 145.68 31.3443 145.528 31.7099C145.377 32.0755 145.3 32.4675 145.301 32.8632Z" fill="white"/>
<path d="M59.954 11.4155C60.4634 11.379 60.9745 11.4559 61.4506 11.6408C61.9267 11.8258 62.3558 12.114 62.7069 12.4849C63.0581 12.8557 63.3226 13.2999 63.4813 13.7853C63.6401 14.2707 63.6891 14.7853 63.6249 15.292C63.6249 17.7844 62.2778 19.217 59.954 19.217H57.136V11.4155H59.954ZM58.3477 18.1137H59.8186C60.1826 18.1355 60.5469 18.0758 60.8849 17.939C61.223 17.8023 61.5262 17.5918 61.7727 17.323C62.0191 17.0543 62.2026 16.7339 62.3096 16.3853C62.4166 16.0367 62.4446 15.6687 62.3914 15.3079C62.4407 14.9485 62.4099 14.5828 62.3013 14.2367C62.1926 13.8907 62.0087 13.5729 61.7628 13.3063C61.5169 13.0397 61.2151 12.8307 60.879 12.6944C60.5429 12.5582 60.1808 12.4979 59.8186 12.518H58.3477V18.1137Z" fill="white"/>
<path d="M64.9936 16.2706C64.9566 15.8837 65.0009 15.4934 65.1236 15.1246C65.2463 14.7558 65.4447 14.4167 65.7061 14.1291C65.9675 13.8414 66.2862 13.6116 66.6416 13.4544C66.997 13.2971 67.3814 13.2159 67.7701 13.2159C68.1588 13.2159 68.5432 13.2971 68.8986 13.4544C69.254 13.6116 69.5727 13.8414 69.8341 14.1291C70.0955 14.4167 70.2939 14.7558 70.4166 15.1246C70.5393 15.4934 70.5836 15.8837 70.5466 16.2706C70.5843 16.6579 70.5406 17.0489 70.4182 17.4182C70.2958 17.7876 70.0975 18.1273 69.836 18.4155C69.5745 18.7037 69.2557 18.934 68.8999 19.0916C68.5441 19.2492 68.1592 19.3306 67.7701 19.3306C67.381 19.3306 66.9961 19.2492 66.6403 19.0916C66.2845 18.934 65.9656 18.7037 65.7042 18.4155C65.4427 18.1273 65.2444 17.7876 65.122 17.4182C64.9996 17.0489 64.9559 16.6579 64.9936 16.2706ZM69.3514 16.2706C69.3514 14.9944 68.7781 14.2481 67.772 14.2481C66.762 14.2481 66.1939 14.9944 66.1939 16.2707C66.1939 17.5571 66.7621 18.2976 67.772 18.2976C68.7782 18.2976 69.3514 17.5519 69.3514 16.2706Z" fill="white"/>
<path d="M77.928 19.2169H76.7226L75.5058 14.8808H75.4139L74.2022 19.2169H73.0083L71.3855 13.3294H72.564L73.6186 17.8219H73.7055L74.9159 13.3294H76.0306L77.241 17.8219H77.333L78.3825 13.3294H79.5444L77.928 19.2169Z" fill="white"/>
<path d="M80.9094 13.3294H82.0279V14.2647H82.1147C82.262 13.9288 82.5104 13.6472 82.8253 13.4592C83.1403 13.2712 83.506 13.1861 83.8716 13.2158C84.1581 13.1943 84.4457 13.2374 84.7132 13.3422C84.9807 13.4469 85.2213 13.6105 85.417 13.8208C85.6127 14.0311 85.7586 14.2827 85.8438 14.557C85.9291 14.8314 85.9515 15.1214 85.9094 15.4056V19.2169H84.7475V15.6973C84.7475 14.7512 84.3364 14.2807 83.4771 14.2807C83.2826 14.2716 83.0884 14.3047 82.9079 14.3777C82.7274 14.4507 82.5648 14.5619 82.4313 14.7036C82.2978 14.8453 82.1965 15.0142 82.1343 15.1987C82.0722 15.3833 82.0507 15.579 82.0713 15.7727V19.2169H80.9094L80.9094 13.3294Z" fill="white"/>
<path d="M87.7608 11.0311H88.9228V19.2169H87.7608V11.0311Z" fill="white"/>
<path d="M90.538 16.2706C90.501 15.8837 90.5453 15.4933 90.668 15.1245C90.7907 14.7557 90.9892 14.4166 91.2506 14.129C91.512 13.8413 91.8307 13.6115 92.1862 13.4543C92.5417 13.297 92.9261 13.2158 93.3148 13.2158C93.7035 13.2158 94.0879 13.297 94.4433 13.4543C94.7988 13.6115 95.1175 13.8413 95.3789 14.129C95.6404 14.4166 95.8388 14.7557 95.9615 15.1245C96.0842 15.4933 96.1285 15.8837 96.0915 16.2706C96.1292 16.658 96.0854 17.0489 95.963 17.4183C95.8406 17.7877 95.6423 18.1274 95.3808 18.4155C95.1193 18.7037 94.8004 18.934 94.4446 19.0916C94.0887 19.2492 93.7039 19.3306 93.3148 19.3306C92.9256 19.3306 92.5408 19.2492 92.185 19.0916C91.8291 18.934 91.5102 18.7037 91.2487 18.4155C90.9872 18.1274 90.7889 17.7877 90.6665 17.4183C90.5441 17.0489 90.5003 16.658 90.538 16.2706ZM94.8958 16.2706C94.8958 14.9944 94.3225 14.2481 93.3163 14.2481C92.3064 14.2481 91.7382 14.9944 91.7382 16.2707C91.7382 17.5571 92.3064 18.2976 93.3163 18.2976C94.3225 18.2976 94.8958 17.5519 94.8958 16.2706Z" fill="white"/>
<path d="M97.3148 17.5519C97.3148 16.4922 98.1039 15.8812 99.5045 15.7944L101.099 15.7024V15.1943C101.099 14.5724 100.688 14.2213 99.894 14.2213C99.2453 14.2213 98.7959 14.4595 98.6669 14.8757H97.542C97.6608 13.8644 98.612 13.2158 99.9476 13.2158C101.424 13.2158 102.256 13.9506 102.256 15.1943V19.2169H101.138V18.3896H101.046C100.859 18.6863 100.597 18.9283 100.286 19.0907C99.9757 19.2531 99.6275 19.3301 99.2773 19.3139C99.0301 19.3396 98.7803 19.3133 98.544 19.2365C98.3076 19.1598 98.09 19.0344 97.9051 18.8684C97.7202 18.7023 97.5721 18.4994 97.4705 18.2727C97.3688 18.046 97.3157 17.8004 97.3148 17.5519ZM101.099 17.0489V16.5566L99.6616 16.6486C98.8508 16.7028 98.4831 16.9786 98.4831 17.4977C98.4831 18.0275 98.9427 18.3359 99.5748 18.3359C99.76 18.3547 99.9471 18.336 100.125 18.2809C100.303 18.2259 100.468 18.1356 100.61 18.0156C100.752 17.8955 100.869 17.748 100.953 17.5819C101.037 17.4159 101.087 17.2346 101.099 17.0489Z" fill="white"/>
<path d="M103.783 16.2706C103.783 14.4103 104.74 13.2318 106.227 13.2318C106.595 13.2148 106.96 13.3029 107.28 13.4859C107.6 13.6688 107.861 13.9389 108.033 14.2647H108.119V11.0311H109.281V19.2169H108.168V18.2867H108.076C107.891 18.6103 107.621 18.8771 107.295 19.0582C106.969 19.2392 106.6 19.3277 106.227 19.3139C104.729 19.314 103.783 18.1355 103.783 16.2706ZM104.983 16.2706C104.983 17.5194 105.572 18.2708 106.557 18.2708C107.536 18.2708 108.141 17.5085 108.141 16.2757C108.141 15.0487 107.529 14.2756 106.557 14.2756C105.578 14.2756 104.983 15.0321 104.983 16.2706Z" fill="white"/>
<path d="M114.089 16.2706C114.052 15.8837 114.096 15.4934 114.218 15.1246C114.341 14.7558 114.54 14.4167 114.801 14.1291C115.062 13.8414 115.381 13.6116 115.737 13.4544C116.092 13.2971 116.476 13.2159 116.865 13.2159C117.254 13.2159 117.638 13.2971 117.994 13.4544C118.349 13.6116 118.668 13.8414 118.929 14.1291C119.19 14.4167 119.389 14.7558 119.512 15.1246C119.634 15.4934 119.679 15.8837 119.641 16.2706C119.679 16.6579 119.635 17.0489 119.513 17.4182C119.391 17.7876 119.192 18.1273 118.931 18.4155C118.669 18.7037 118.351 18.934 117.995 19.0916C117.639 19.2492 117.254 19.3306 116.865 19.3306C116.476 19.3306 116.091 19.2492 115.735 19.0916C115.379 18.934 115.061 18.7037 114.799 18.4155C114.538 18.1273 114.339 17.7876 114.217 17.4182C114.095 17.0489 114.051 16.6579 114.089 16.2706ZM118.446 16.2706C118.446 14.9944 117.873 14.2481 116.867 14.2481C115.857 14.2481 115.289 14.9944 115.289 16.2707C115.289 17.5571 115.857 18.2976 116.867 18.2976C117.873 18.2976 118.446 17.5519 118.446 16.2706Z" fill="white"/>
<path d="M121.2 13.3294H122.319V14.2647H122.406C122.553 13.9288 122.802 13.6472 123.116 13.4592C123.431 13.2712 123.797 13.1861 124.163 13.2158C124.449 13.1943 124.737 13.2374 125.004 13.3422C125.272 13.4469 125.512 13.6105 125.708 13.8208C125.904 14.0311 126.05 14.2827 126.135 14.557C126.22 14.8314 126.243 15.1214 126.201 15.4056V19.2169H125.039V15.6973C125.039 14.7512 124.628 14.2807 123.768 14.2807C123.574 14.2716 123.38 14.3047 123.199 14.3777C123.019 14.4507 122.856 14.5619 122.722 14.7036C122.589 14.8453 122.488 15.0142 122.425 15.1987C122.363 15.3833 122.342 15.579 122.362 15.7727V19.2169H121.2V13.3294Z" fill="white"/>
<path d="M132.766 11.8636V13.3563H134.042V14.335H132.766V17.3623C132.766 17.979 133.02 18.2491 133.599 18.2491C133.747 18.2486 133.895 18.2397 134.042 18.2223V19.1901C133.833 19.2274 133.622 19.2473 133.41 19.2495C132.117 19.2495 131.603 18.7949 131.603 17.6598V14.3349H130.668V13.3562H131.603V11.8636H132.766Z" fill="white"/>
<path d="M135.629 11.0311H136.78V14.2756H136.872C137.027 13.9365 137.282 13.6533 137.603 13.4646C137.925 13.2759 138.296 13.1908 138.668 13.2209C138.953 13.2054 139.237 13.253 139.502 13.3602C139.766 13.4675 140.004 13.6318 140.198 13.8415C140.391 14.0511 140.536 14.3009 140.622 14.573C140.708 14.8452 140.733 15.1329 140.695 15.4158V19.2169H139.532V15.7024C139.532 14.762 139.094 14.2858 138.273 14.2858C138.073 14.2694 137.873 14.2968 137.685 14.3662C137.497 14.4356 137.326 14.5452 137.185 14.6874C137.044 14.8295 136.935 15.0008 136.867 15.1893C136.799 15.3777 136.773 15.5788 136.791 15.7784V19.2169H135.629L135.629 11.0311Z" fill="white"/>
<path d="M147.47 17.6273C147.312 18.1653 146.97 18.6308 146.504 18.9422C146.037 19.2535 145.476 19.391 144.919 19.3306C144.531 19.3408 144.146 19.2665 143.789 19.1128C143.433 18.9592 143.114 18.7298 142.856 18.4407C142.597 18.1515 142.404 17.8096 142.291 17.4385C142.178 17.0674 142.146 16.6761 142.199 16.2917C142.148 15.9061 142.179 15.514 142.293 15.1418C142.406 14.7696 142.597 14.426 142.855 14.1344C143.112 13.8427 143.429 13.6097 143.784 13.4513C144.14 13.2928 144.525 13.2125 144.914 13.2158C146.552 13.2158 147.54 14.335 147.54 16.1838V16.5892H143.383V16.6543C143.365 16.8704 143.392 17.0879 143.463 17.2928C143.533 17.4978 143.646 17.6856 143.794 17.8445C143.941 18.0033 144.121 18.1294 144.32 18.215C144.519 18.3005 144.734 18.3434 144.951 18.341C145.229 18.3743 145.51 18.3243 145.76 18.1972C146.009 18.0701 146.215 17.8717 146.352 17.6272L147.47 17.6273ZM143.383 15.7299H146.357C146.371 15.5323 146.344 15.3338 146.278 15.1472C146.211 14.9606 146.106 14.79 145.97 14.6464C145.833 14.5027 145.668 14.3893 145.485 14.3132C145.302 14.2371 145.106 14.2002 144.907 14.2047C144.706 14.2022 144.507 14.2399 144.321 14.3157C144.135 14.3914 143.966 14.5037 143.824 14.6458C143.682 14.788 143.569 14.9571 143.494 15.1433C143.418 15.3295 143.38 15.5289 143.383 15.7299Z" fill="white"/>
</g>
<defs>
<clipPath id="clip0_1_888">
<rect width="176.51" height="52.2991" fill="white"/>
</clipPath>
</defs>
</svg>
