<svg width="143" height="43" viewBox="0 0 143 43" fill="none" xmlns="http://www.w3.org/2000/svg">
<g clip-path="url(#clip0_0_1223)">
<path fill-rule="evenodd" clip-rule="evenodd" d="M11.9889 0.312136H131.367C131.793 0.312136 132.226 0.311999 132.653 0.314099C132.948 0.31577 133.249 0.320177 133.547 0.324527C133.614 0.325506 133.68 0.326482 133.747 0.327424C134.542 0.335244 135.336 0.397294 136.12 0.513022C136.908 0.631588 137.671 0.853481 138.385 1.17137C139.812 1.81996 140.973 2.84809 141.706 4.11116C142.064 4.74051 142.311 5.41438 142.44 6.10965C142.573 6.80453 142.646 7.50718 142.661 8.21175C142.665 8.53372 142.665 8.85672 142.665 9.17869C142.675 9.55911 142.675 9.94055 142.675 10.3251V32.3002C142.675 32.6878 142.675 33.0672 142.665 33.4487C142.665 33.7747 142.665 34.0905 142.661 34.4167C142.646 35.1212 142.573 35.8238 142.44 36.5187C142.312 37.2143 142.064 37.8886 141.706 38.5182C141.342 39.1448 140.869 39.7168 140.304 40.2132C139.743 40.7139 139.095 41.1317 138.385 41.4508C137.671 41.7696 136.908 41.9928 136.12 42.1132C135.336 42.2279 134.542 42.29 133.747 42.2988C133.385 42.3059 133.014 42.31 132.653 42.31C132.226 42.3121 131.793 42.3121 131.367 42.3121H11.9889C11.5538 42.3121 11.1239 42.3121 10.6899 42.31C10.3266 42.31 9.96618 42.3059 9.59939 42.2988C8.80262 42.2895 8.00776 42.2275 7.22146 42.1132C6.43631 41.9936 5.67592 41.7703 4.96577 41.4508C4.25476 41.1319 3.60625 40.714 3.04499 40.2132C2.47854 39.7187 2.00637 39.1463 1.64685 38.5182C1.28582 37.889 1.0357 37.2147 0.905187 36.5187C0.773069 35.8239 0.701973 35.1211 0.692538 34.4167C0.685015 34.1938 0.682089 33.9758 0.679139 33.7561C0.677772 33.6542 0.676399 33.5519 0.674561 33.4487V9.17869C0.676421 9.07548 0.677804 8.97216 0.679188 8.86881C0.682121 8.64975 0.685056 8.43052 0.692538 8.21179C0.70197 7.50728 0.773066 6.80448 0.905187 6.10969C1.03606 5.41402 1.28616 4.7401 1.64685 4.1112C2.00654 3.48105 2.47864 2.9063 3.04499 2.40906C3.60838 1.91041 4.25648 1.49283 4.96577 1.17147C5.67592 0.852797 6.43639 0.630845 7.22146 0.513116C8.00762 0.397896 8.80257 0.335867 9.59939 0.327571C9.67554 0.326505 9.75141 0.325397 9.82709 0.324292C10.1159 0.320076 10.402 0.3159 10.6899 0.314236C11.1239 0.312136 11.5538 0.312136 11.9889 0.312136ZM9.51857 41.3853C9.8779 41.3924 10.2313 41.3965 10.5935 41.3965L131.473 41.3986L132.761 41.3965C133.115 41.3965 133.48 41.3924 133.828 41.3853C134.573 41.3773 135.315 41.32 136.05 41.214C136.74 41.1106 137.408 40.916 138.033 40.6366C138.649 40.3599 139.211 39.9973 139.696 39.5628C140.183 39.1367 140.59 38.6456 140.904 38.1075C141.218 37.5554 141.435 36.9638 141.545 36.3536C141.667 35.71 141.735 35.0594 141.749 34.407C141.753 34.085 141.753 33.7722 141.753 33.4306C141.763 33.0553 141.763 32.683 141.763 32.3014V10.3217C141.763 9.9438 141.763 9.56894 141.753 9.17511C141.753 8.85717 141.753 8.53769 141.75 8.24027C141.736 7.57605 141.667 6.91362 141.543 6.25828C141.431 5.656 141.217 5.07215 140.907 4.52656C140.274 3.43548 139.27 2.5468 138.036 1.9851C137.41 1.70729 136.741 1.51338 136.05 1.40974C135.32 1.30383 134.581 1.24675 133.841 1.23898L132.756 1.22564H10.5941L9.52149 1.23847C8.77452 1.24664 8.0293 1.30424 7.29207 1.41076C6.60827 1.51312 5.94577 1.70569 5.32676 1.98202C4.71096 2.26074 4.14847 2.62309 3.65979 3.05584C3.17056 3.48452 2.76306 3.98031 2.45309 4.52399C2.13837 5.07338 1.92052 5.66203 1.80707 6.26956C1.68515 6.91957 1.61937 7.57683 1.61031 8.23565C1.60335 8.44898 1.59284 9.17511 1.59284 9.17511V33.4358C1.59284 33.4358 1.60271 34.1732 1.61025 34.3947C1.61971 35.0546 1.68588 35.7129 1.80817 36.3639C1.92141 36.9698 2.13909 37.5567 2.45363 38.1043C2.76475 38.6484 3.17452 39.1438 3.66672 39.5709C4.15189 40.0032 4.71259 40.3637 5.32734 40.6386C5.94778 40.9158 6.61153 41.1097 7.29671 41.214C8.03153 41.3195 8.77418 41.3767 9.51857 41.3853Z" fill="#A6A6A6"/>
<path d="M10.5934 41.3966C10.2313 41.3966 9.87783 41.3925 9.5185 41.3853C8.77411 41.3767 8.03146 41.3195 7.29664 41.214C6.61146 41.1098 5.94771 40.9158 5.32727 40.6386C4.71252 40.3637 4.15182 40.0032 3.66665 39.571C3.17445 39.1438 2.76468 38.6484 2.45356 38.1043C2.13902 37.5567 1.92133 36.9698 1.8081 36.3639C1.68581 35.7129 1.61964 35.0546 1.61018 34.3947C1.60264 34.1732 1.59277 33.4358 1.59277 33.4358V9.17512C1.59277 9.17512 1.60328 8.44898 1.61024 8.23565C1.6193 7.57683 1.68508 6.91957 1.807 6.26957C1.92045 5.66204 2.1383 5.07339 2.45302 4.524C2.76299 3.98031 3.17049 3.48452 3.65972 3.05584C4.1484 2.62309 4.71089 2.26075 5.32669 1.98203C5.9457 1.7057 6.6082 1.51313 7.292 1.41077C8.02923 1.30424 8.77445 1.24665 9.52142 1.23847L10.594 1.22565H132.755L133.841 1.23898C134.581 1.24676 135.32 1.30384 136.05 1.40974C136.741 1.51338 137.41 1.70729 138.036 1.9851C139.27 2.54681 140.274 3.43548 140.907 4.52656C141.217 5.07216 141.431 5.65601 141.543 6.25829C141.666 6.91363 141.736 7.57605 141.75 8.24027C141.753 8.5377 141.753 8.85717 141.753 9.17512C141.763 9.56895 141.763 9.9438 141.763 10.3217V32.3014C141.763 32.683 141.763 33.0553 141.753 33.4306C141.753 33.7722 141.753 34.085 141.749 34.407C141.735 35.0594 141.667 35.71 141.545 36.3536C141.434 36.9638 141.218 37.5554 140.903 38.1075C140.59 38.6456 140.183 39.1368 139.696 39.5628C139.211 39.9973 138.649 40.3599 138.033 40.6366C137.408 40.916 136.74 41.1106 136.05 41.214C135.315 41.3201 134.573 41.3773 133.828 41.3853C133.48 41.3925 133.115 41.3966 132.761 41.3966L131.473 41.3987L10.5934 41.3966Z" fill="black"/>
<path d="M35.1725 21.6279C35.1838 20.7515 35.417 19.8922 35.8504 19.1299C36.2838 18.3677 36.9033 17.7273 37.6512 17.2682C37.1761 16.5908 36.5492 16.0333 35.8205 15.64C35.0917 15.2468 34.2812 15.0285 33.4531 15.0027C31.6868 14.8176 29.9745 16.0577 29.0744 16.0577C28.1569 16.0577 26.7711 15.021 25.2788 15.0517C24.3135 15.0828 23.3728 15.363 22.5483 15.865C21.7237 16.3669 21.0435 17.0735 20.5739 17.9159C18.5396 21.4318 20.057 26.5989 22.0057 29.4408C22.9807 30.8324 24.1201 32.3869 25.6111 32.3318C27.07 32.2714 27.6149 31.4031 29.3761 31.4031C31.1208 31.4031 31.6321 32.3318 33.1533 32.2967C34.7188 32.2714 35.7052 30.8989 36.6459 29.4941C37.3465 28.5026 37.8855 27.4067 38.2431 26.247C37.3336 25.863 36.5574 25.2202 36.0113 24.3988C35.4653 23.5774 35.1736 22.6137 35.1725 21.6279Z" fill="white"/>
<path d="M32.2992 13.1336C33.1528 12.1107 33.5733 10.7959 33.4715 9.46844C32.1674 9.60518 30.9627 10.2274 30.0976 11.211C29.6746 11.6916 29.3506 12.2506 29.1442 12.8563C28.9378 13.4619 28.853 14.1021 28.8946 14.7405C29.5469 14.7472 30.1922 14.6061 30.7819 14.3277C31.3716 14.0494 31.8904 13.6411 32.2992 13.1336Z" fill="white"/>
<path d="M53.6151 28.8088H48.6363L47.4406 32.3331H45.3318L50.0477 19.2942H52.2387L56.9545 32.3331H54.8097L53.6151 28.8088ZM49.1519 27.1826H53.0985L51.153 21.4629H51.0985L49.1519 27.1826Z" fill="white"/>
<path d="M67.1392 27.5804C67.1392 30.5346 65.5553 32.4326 63.165 32.4326C62.5595 32.4642 61.9573 32.3249 61.4274 32.0308C60.8975 31.7366 60.4612 31.2995 60.1687 30.7694H60.1234V35.4779H58.1687V22.8267H60.0608V24.4078H60.0967C60.4028 23.8803 60.8464 23.4454 61.3803 23.1494C61.9143 22.8535 62.5186 22.7076 63.129 22.7272C65.546 22.7272 67.1392 24.6345 67.1392 27.5804ZM65.13 27.5804C65.13 25.6558 64.1336 24.3904 62.6134 24.3904C61.1198 24.3904 60.1152 25.6824 60.1152 27.5804C60.1152 29.4958 61.1198 30.7786 62.6134 30.7786C64.1336 30.7786 65.13 29.5225 65.13 27.5804Z" fill="white"/>
<path d="M77.6208 27.5804C77.6208 30.5346 76.0368 32.4326 73.6465 32.4326C73.041 32.4642 72.4388 32.3249 71.9089 32.0308C71.379 31.7366 70.9428 31.2995 70.6502 30.7694H70.605V35.4779H68.6502V22.8267H70.5423V24.4078H70.5782C70.8843 23.8803 71.3279 23.4454 71.8618 23.1494C72.3958 22.8535 73.0001 22.7076 73.6105 22.7272C76.0276 22.7272 77.6208 24.6345 77.6208 27.5804ZM75.6116 27.5804C75.6116 25.6558 74.6152 24.3904 73.0949 24.3904C71.6014 24.3904 70.5968 25.6824 70.5968 27.5804C70.5968 29.4958 71.6014 30.7786 73.0949 30.7786C74.6152 30.7786 75.6116 29.5225 75.6116 27.5804Z" fill="white"/>
<path d="M84.5482 28.7001C84.693 29.9931 85.9514 30.8421 87.6709 30.8421C89.3185 30.8421 90.5039 29.9931 90.5039 28.8272C90.5039 27.8152 89.789 27.2092 88.0961 26.7939L86.4033 26.3868C84.0048 25.8085 82.8913 24.6887 82.8913 22.8718C82.8913 20.622 84.8553 19.0768 87.6442 19.0768C90.4042 19.0768 92.2963 20.622 92.36 22.8718H90.3868C90.2686 21.5705 89.1911 20.7851 87.6164 20.7851C86.0417 20.7851 84.9642 21.5798 84.9642 22.7364C84.9642 23.6582 85.6524 24.2007 87.336 24.6159L88.7751 24.9686C91.455 25.6013 92.5685 26.6759 92.5685 28.5831C92.5685 31.0225 90.622 32.5504 87.526 32.5504C84.6293 32.5504 82.6735 31.0584 82.5472 28.7L84.5482 28.7001Z" fill="white"/>
<path d="M96.7873 20.577V22.8267H98.5982V24.372H96.7873V29.6127C96.7873 30.4269 97.1499 30.8063 97.9459 30.8063C98.1609 30.8025 98.3756 30.7875 98.589 30.7611V32.2972C98.231 32.3639 97.8673 32.3942 97.5032 32.3874C95.5752 32.3874 94.8233 31.6645 94.8233 29.8208V24.372H93.4386V22.8267H94.8232V20.577H96.7873Z" fill="white"/>
<path d="M99.647 27.5804C99.647 24.5893 101.412 22.7098 104.164 22.7098C106.925 22.7098 108.681 24.5893 108.681 27.5804C108.681 30.5797 106.934 32.451 104.164 32.451C101.394 32.451 99.647 30.5797 99.647 27.5804ZM106.689 27.5804C106.689 25.5286 105.748 24.3176 104.164 24.3176C102.58 24.3176 101.639 25.5378 101.639 27.5804C101.639 29.6404 102.58 30.8422 104.164 30.8422C105.748 30.8422 106.689 29.6404 106.689 27.5804Z" fill="white"/>
<path d="M110.293 22.8267H112.157V24.4447H112.202C112.329 23.9394 112.625 23.4928 113.042 23.18C113.459 22.8672 113.972 22.7073 114.493 22.7272C114.718 22.7264 114.943 22.7508 115.163 22.8V24.6252C114.878 24.5385 114.582 24.4986 114.285 24.5073C114.001 24.4958 113.717 24.5458 113.455 24.6538C113.192 24.7618 112.956 24.9254 112.762 25.1331C112.569 25.3409 112.422 25.5881 112.334 25.8576C112.245 26.1271 112.215 26.4126 112.248 26.6944V32.3331H110.293L110.293 22.8267Z" fill="white"/>
<path d="M124.175 29.5409C123.913 31.2667 122.229 32.451 120.075 32.451C117.305 32.451 115.585 30.5981 115.585 27.6255C115.585 24.6437 117.314 22.7098 119.993 22.7098C122.627 22.7098 124.284 24.5165 124.284 27.3989V28.0675H117.558V28.1854C117.527 28.5352 117.571 28.8877 117.687 29.2193C117.803 29.5509 117.988 29.8542 118.23 30.1088C118.473 30.3635 118.767 30.5638 119.092 30.6964C119.418 30.8291 119.768 30.891 120.12 30.878C120.582 30.9213 121.046 30.8145 121.442 30.5735C121.838 30.3326 122.146 29.9705 122.319 29.5409L124.175 29.5409ZM117.567 26.7037H122.329C122.346 26.3891 122.298 26.0743 122.188 25.779C122.078 25.4838 121.908 25.2144 121.689 24.9879C121.469 24.7613 121.206 24.5824 120.914 24.4625C120.622 24.3426 120.308 24.2842 119.993 24.2909C119.674 24.289 119.359 24.3501 119.064 24.4706C118.77 24.5911 118.502 24.7686 118.276 24.9929C118.051 25.2172 117.872 25.4839 117.751 25.7775C117.629 26.0711 117.567 26.3859 117.567 26.7037Z" fill="white"/>
<path d="M48.9069 9.47972C49.3167 9.45036 49.728 9.51217 50.111 9.66067C50.494 9.80917 50.8392 10.0407 51.1217 10.3385C51.4042 10.6363 51.617 10.993 51.7447 11.3828C51.8724 11.7726 51.9118 12.1859 51.8601 12.5928C51.8601 14.5944 50.7764 15.7449 48.9069 15.7449H46.6399V9.47972H48.9069ZM47.6147 14.8589H48.798C49.0909 14.8763 49.3839 14.8284 49.6559 14.7186C49.9278 14.6087 50.1718 14.4397 50.3701 14.2239C50.5683 14.008 50.7159 13.7508 50.802 13.4708C50.8881 13.1909 50.9106 12.8953 50.8678 12.6056C50.9075 12.317 50.8827 12.0232 50.7953 11.7453C50.7079 11.4674 50.5599 11.2123 50.3621 10.9982C50.1643 10.784 49.9215 10.6162 49.6511 10.5068C49.3807 10.3973 49.0894 10.349 48.798 10.3651H47.6147V14.8589Z" fill="white"/>
<path d="M52.9613 13.3787C52.9315 13.068 52.9671 12.7545 53.0658 12.4583C53.1645 12.1622 53.3241 11.8899 53.5344 11.6589C53.7448 11.4279 54.0011 11.2433 54.2871 11.1171C54.573 10.9908 54.8822 10.9255 55.1949 10.9255C55.5076 10.9255 55.8168 10.9908 56.1028 11.1171C56.3887 11.2433 56.6451 11.4279 56.8554 11.6589C57.0657 11.8899 57.2253 12.1622 57.324 12.4583C57.4227 12.7545 57.4583 13.068 57.4286 13.3787C57.4589 13.6898 57.4237 14.0037 57.3253 14.3003C57.2268 14.597 57.0673 14.8698 56.8569 15.1012C56.6466 15.3327 56.39 15.5176 56.1038 15.6442C55.8176 15.7707 55.508 15.8361 55.1949 15.8361C54.8819 15.8361 54.5723 15.7707 54.286 15.6442C53.9998 15.5176 53.7433 15.3327 53.5329 15.1012C53.3225 14.8698 53.163 14.597 53.0646 14.3003C52.9661 14.0037 52.9309 13.6898 52.9613 13.3787ZM56.4671 13.3787C56.4671 12.3539 56.0059 11.7545 55.1965 11.7545C54.3839 11.7545 53.9269 12.3539 53.9269 13.3787C53.9269 14.4118 54.384 15.0065 55.1965 15.0065C56.0059 15.0065 56.4671 14.4077 56.4671 13.3787Z" fill="white"/>
<path d="M63.3668 15.7448H62.3971L61.4182 12.2626H61.3443L60.3694 15.7448H59.409L58.1034 11.0167H59.0515L59.9 14.6245H59.9699L60.9436 11.0167H61.8404L62.8142 14.6245H62.8881L63.7325 11.0167H64.6672L63.3668 15.7448Z" fill="white"/>
<path d="M65.7653 11.0167H66.6651V11.7678H66.735C66.8535 11.4981 67.0533 11.2719 67.3067 11.1209C67.5601 10.9699 67.8543 10.9016 68.1484 10.9255C68.3789 10.9082 68.6103 10.9429 68.8255 11.027C69.0407 11.1111 69.2342 11.2424 69.3916 11.4113C69.5491 11.5802 69.6664 11.7823 69.735 12.0026C69.8036 12.2229 69.8216 12.4558 69.7878 12.684V15.7448H68.8531V12.9183C68.8531 12.1585 68.5223 11.7806 67.831 11.7806C67.6745 11.7734 67.5183 11.8 67.3731 11.8586C67.2279 11.9172 67.0971 12.0065 66.9897 12.1203C66.8823 12.2341 66.8008 12.3697 66.7508 12.5179C66.7008 12.6661 66.6835 12.8233 66.7001 12.9788V15.7448H65.7653L65.7653 11.0167Z" fill="white"/>
<path d="M71.2773 9.17102H72.212V15.7448H71.2773V9.17102Z" fill="white"/>
<path d="M73.5114 13.3787C73.4817 13.068 73.5173 12.7545 73.616 12.4583C73.7147 12.1621 73.8744 11.8898 74.0847 11.6588C74.2951 11.4278 74.5514 11.2433 74.8374 11.117C75.1234 10.9907 75.4326 10.9254 75.7453 10.9254C76.058 10.9254 76.3673 10.9907 76.6532 11.117C76.9392 11.2433 77.1956 11.4278 77.4059 11.6588C77.6162 11.8898 77.7759 12.1621 77.8746 12.4583C77.9733 12.7545 78.009 13.068 77.9792 13.3787C78.0095 13.6898 77.9743 14.0037 77.8758 14.3004C77.7773 14.597 77.6178 14.8698 77.4074 15.1012C77.197 15.3327 76.9405 15.5176 76.6542 15.6442C76.368 15.7707 76.0584 15.8361 75.7453 15.8361C75.4322 15.8361 75.1226 15.7707 74.8364 15.6442C74.5502 15.5176 74.2936 15.3327 74.0832 15.1012C73.8728 14.8698 73.7133 14.597 73.6148 14.3004C73.5163 14.0037 73.4811 13.6898 73.5114 13.3787ZM77.0172 13.3787C77.0172 12.3539 76.556 11.7545 75.7466 11.7545C74.9341 11.7545 74.477 12.3539 74.477 13.3787C74.477 14.4118 74.9341 15.0065 75.7466 15.0065C76.556 15.0065 77.0172 14.4077 77.0172 13.3787Z" fill="white"/>
<path d="M78.9633 14.4077C78.9633 13.5566 79.5981 13.066 80.7249 12.9963L82.0079 12.9224V12.5143C82.0079 12.015 81.6771 11.733 81.0382 11.733C80.5164 11.733 80.1548 11.9242 80.0511 12.2585H79.1461C79.2416 11.4464 80.0069 10.9255 81.0814 10.9255C82.2688 10.9255 82.9385 11.5156 82.9385 12.5143V15.7448H82.0387V15.0804H81.9648C81.8146 15.3187 81.6038 15.513 81.3539 15.6434C81.104 15.7739 80.8238 15.8357 80.5421 15.8227C80.3433 15.8434 80.1423 15.8222 79.9522 15.7606C79.762 15.6989 79.5869 15.5982 79.4382 15.4649C79.2894 15.3316 79.1703 15.1686 79.0885 14.9865C79.0067 14.8044 78.9641 14.6073 78.9633 14.4077ZM82.0079 14.0037V13.6084L80.8513 13.6822C80.199 13.7258 79.9032 13.9473 79.9032 14.3641C79.9032 14.7897 80.2729 15.0373 80.7815 15.0373C80.9304 15.0523 81.0809 15.0373 81.224 14.9931C81.3671 14.9489 81.4998 14.8765 81.6142 14.78C81.7286 14.6836 81.8224 14.5652 81.8901 14.4318C81.9577 14.2984 81.9978 14.1528 82.0079 14.0037Z" fill="white"/>
<path d="M84.1671 13.3787C84.1671 11.8847 84.9364 10.9383 86.1331 10.9383C86.4291 10.9247 86.7229 10.9955 86.9801 11.1423C87.2373 11.2892 87.4473 11.5062 87.5856 11.7678H87.6554V9.17102H88.5902V15.7448H87.6945V14.9978H87.6205C87.4716 15.2577 87.2542 15.4719 86.9921 15.6173C86.7299 15.7627 86.4328 15.8337 86.1331 15.8227C84.9282 15.8228 84.1671 14.8763 84.1671 13.3787ZM85.1327 13.3787C85.1327 14.3816 85.6062 14.985 86.3982 14.985C87.186 14.985 87.6729 14.3729 87.6729 13.3828C87.6729 12.3974 87.1809 11.7766 86.3982 11.7766C85.6113 11.7766 85.1327 12.3841 85.1327 13.3787Z" fill="white"/>
<path d="M92.4576 13.3787C92.4278 13.068 92.4634 12.7545 92.5621 12.4583C92.6608 12.1622 92.8205 11.8899 93.0308 11.6589C93.2411 11.4279 93.4974 11.2433 93.7834 11.1171C94.0693 10.9908 94.3786 10.9255 94.6912 10.9255C95.0039 10.9255 95.3131 10.9908 95.5991 11.1171C95.885 11.2433 96.1414 11.4279 96.3517 11.6589C96.562 11.8899 96.7216 12.1622 96.8203 12.4583C96.919 12.7545 96.9547 13.068 96.9249 13.3787C96.9552 13.6898 96.92 14.0037 96.8216 14.3003C96.7231 14.597 96.5636 14.8698 96.3533 15.1012C96.1429 15.3327 95.8863 15.5176 95.6001 15.6442C95.3139 15.7707 95.0043 15.8361 94.6912 15.8361C94.3782 15.8361 94.0686 15.7707 93.7823 15.6442C93.4961 15.5176 93.2396 15.3327 93.0292 15.1012C92.8188 14.8698 92.6593 14.597 92.5609 14.3003C92.4624 14.0037 92.4272 13.6898 92.4576 13.3787ZM95.9634 13.3787C95.9634 12.3539 95.5022 11.7545 94.6928 11.7545C93.8803 11.7545 93.4232 12.3539 93.4232 13.3787C93.4232 14.4118 93.8803 15.0065 94.6928 15.0065C95.5022 15.0065 95.9634 14.4077 95.9634 13.3787Z" fill="white"/>
<path d="M98.1791 11.0167H99.0789V11.7678H99.1488C99.2673 11.4981 99.4671 11.2719 99.7205 11.1209C99.9738 10.9699 100.268 10.9016 100.562 10.9255C100.793 10.9082 101.024 10.9429 101.239 11.027C101.454 11.1111 101.648 11.2424 101.805 11.4113C101.963 11.5802 102.08 11.7823 102.149 12.0026C102.217 12.2229 102.235 12.4558 102.202 12.684V15.7448H101.267V12.9183C101.267 12.1585 100.936 11.7806 100.245 11.7806C100.088 11.7734 99.9321 11.8 99.7869 11.8586C99.6417 11.9172 99.5109 12.0065 99.4035 12.1203C99.296 12.2341 99.2145 12.3697 99.1646 12.5179C99.1146 12.6661 99.0973 12.8233 99.1138 12.9788V15.7448H98.1791V11.0167Z" fill="white"/>
<path d="M107.483 9.83959V11.0383H108.51V11.8242H107.483V14.2554C107.483 14.7507 107.688 14.9676 108.153 14.9676C108.272 14.9672 108.391 14.96 108.51 14.946V15.7233C108.342 15.7533 108.172 15.7692 108.001 15.771C106.962 15.771 106.548 15.4059 106.548 14.4943V11.8242H105.796V11.0382H106.548V9.83959H107.483Z" fill="white"/>
<path d="M109.786 9.17102H110.713V11.7765H110.787C110.911 11.5043 111.117 11.2768 111.375 11.1253C111.633 10.9737 111.932 10.9054 112.231 10.9296C112.46 10.9171 112.69 10.9553 112.902 11.0415C113.115 11.1276 113.306 11.2596 113.462 11.4279C113.618 11.5963 113.734 11.7969 113.804 12.0154C113.873 12.234 113.893 12.4651 113.862 12.6922V15.7448H112.927V12.9224C112.927 12.1672 112.574 11.7847 111.914 11.7847C111.753 11.7716 111.592 11.7936 111.44 11.8493C111.289 11.905 111.152 11.9931 111.038 12.1072C110.925 12.2214 110.837 12.359 110.783 12.5103C110.728 12.6617 110.707 12.8231 110.721 12.9834V15.7448H109.786L109.786 9.17102Z" fill="white"/>
<path d="M119.313 14.4682C119.186 14.9003 118.911 15.2741 118.535 15.5242C118.16 15.7742 117.709 15.8846 117.26 15.8361C116.948 15.8443 116.638 15.7846 116.352 15.6612C116.065 15.5378 115.809 15.3536 115.6 15.1214C115.392 14.8892 115.237 14.6146 115.146 14.3166C115.055 14.0186 115.03 13.7043 115.072 13.3956C115.031 13.086 115.056 12.7711 115.147 12.4722C115.238 12.1733 115.393 11.8974 115.6 11.6631C115.807 11.4289 116.062 11.2418 116.348 11.1146C116.633 10.9873 116.943 10.9228 117.256 10.9255C118.574 10.9255 119.369 11.8243 119.369 13.309V13.6346H116.025V13.6869C116.01 13.8604 116.032 14.035 116.089 14.1996C116.146 14.3642 116.236 14.5151 116.355 14.6426C116.474 14.7701 116.618 14.8715 116.778 14.9402C116.939 15.0088 117.112 15.0433 117.286 15.0414C117.51 15.0682 117.736 15.028 117.937 14.9259C118.137 14.8238 118.303 14.6645 118.413 14.4682L119.313 14.4682ZM116.025 12.9445H118.417C118.429 12.7858 118.407 12.6264 118.354 12.4765C118.3 12.3267 118.216 12.1897 118.106 12.0743C117.996 11.959 117.863 11.8678 117.716 11.8068C117.569 11.7457 117.41 11.716 117.251 11.7196C117.089 11.7176 116.929 11.7479 116.779 11.8088C116.629 11.8696 116.493 11.9598 116.379 12.0739C116.265 12.1881 116.175 12.3239 116.114 12.4734C116.053 12.6229 116.022 12.7831 116.025 12.9445Z" fill="white"/>
</g>
<defs>
<clipPath id="clip0_0_1223">
<rect width="142" height="42" fill="white" transform="translate(0.674561 0.312134)"/>
</clipPath>
</defs>
</svg>
