<svg width="51" height="51" viewBox="0 0 51 51" fill="none" xmlns="http://www.w3.org/2000/svg">
<rect x="0.657227" y="0.507568" width="50" height="50" rx="10" fill="#50C878"/>
<path fill-rule="evenodd" clip-rule="evenodd" d="M18.3044 27.3963C20.9464 27.0895 23.7382 28.1247 26.8204 30.5529C26.8406 30.5463 26.8762 30.531 26.9188 30.5004C26.9724 30.4632 26.997 30.4156 26.997 30.3511V20.159C26.997 20.0939 26.9724 20.0463 26.9188 20.0091C26.8762 19.979 26.8406 19.9632 26.8182 19.9566C23.7251 22.4186 20.9354 23.485 18.3044 23.21V27.3963ZM36.459 37.8493L29.3814 33.0384C29.2315 32.9361 29.0287 32.9755 28.9258 33.1254C28.8252 33.2752 28.8635 33.4792 29.0128 33.5815L36.0905 38.3923C36.1442 38.4296 36.2082 38.4495 36.2737 38.4492C36.3787 38.4492 36.4815 38.3989 36.546 38.3054C36.6466 38.155 36.6089 37.951 36.459 37.8493ZM35.4944 34.2574C35.6573 34.3334 35.729 34.5281 35.653 34.6927C35.5994 34.813 35.4812 34.8836 35.356 34.8836C35.309 34.8836 35.2647 34.8737 35.2198 34.8529L29.0221 31.9972C28.8569 31.9211 28.7853 31.7265 28.8613 31.5618C28.9373 31.3972 29.1315 31.3256 29.2966 31.4011L35.4944 34.2574ZM35.8296 29.1381L36.6472 30.2822C36.7095 30.3718 36.8101 30.42 36.9129 30.42C36.9802 30.42 37.0469 30.3997 37.1049 30.3587C37.2498 30.2532 37.2859 30.0486 37.1809 29.901L36.3633 28.7569C36.2583 28.6093 36.0527 28.5754 35.9056 28.6804C35.7579 28.7854 35.7246 28.9904 35.8296 29.1381ZM33.6897 29.6024L33.6765 31.0095C33.6744 31.1905 33.8215 31.3387 34.0025 31.3404H34.0047C34.1857 31.3404 34.3306 31.1954 34.3328 31.015L34.3465 29.6084C34.3465 29.4268 34.2015 29.2792 34.0205 29.277C33.8395 29.2732 33.6919 29.4208 33.6897 29.6024ZM31.6887 28.7143L30.8514 29.8436C30.7442 29.989 30.7732 30.1947 30.9187 30.3024C30.9788 30.3461 31.0461 30.3669 31.115 30.3669C31.2156 30.3669 31.3135 30.321 31.3786 30.234L32.2158 29.1047C32.323 28.9593 32.2919 28.7536 32.1464 28.6459C32.1119 28.6203 32.0726 28.6017 32.0309 28.5913C31.9892 28.5809 31.9459 28.5788 31.9033 28.5852C31.8608 28.5915 31.82 28.6062 31.7831 28.6283C31.7463 28.6505 31.7142 28.6797 31.6887 28.7143ZM31.2708 26.0811C31.2708 25.4188 31.5033 24.8101 31.8894 24.3322C30.929 24.6893 30.0622 25.2848 29.3726 26.0811C30.0628 26.8773 30.929 27.4729 31.8894 27.83C31.5033 27.352 31.2708 26.7433 31.2708 26.0811ZM34.7506 26.0811C34.7506 25.6933 34.4356 25.3778 34.0495 25.3778C33.6634 25.3778 33.3484 25.6933 33.3484 26.0811C33.3484 26.4688 33.6634 26.7843 34.0495 26.7843C34.4356 26.7843 34.7506 26.4688 34.7506 26.0811ZM36.173 26.0811C36.173 27.2547 35.2193 28.209 34.049 28.209C32.8787 28.209 31.9271 27.2547 31.9271 26.0811C31.9271 24.9075 32.8787 23.9532 34.049 23.9532C35.2198 23.9532 36.173 24.9075 36.173 26.0811ZM35.4074 26.0811C35.4074 26.8308 34.7976 27.4406 34.0495 27.4406C33.3014 27.4406 32.6916 26.8308 32.6916 26.0811C32.6916 25.3313 33.3014 24.7215 34.0495 24.7215C34.7976 24.7215 35.4074 25.3313 35.4074 26.0811ZM38.7258 26.0811C38.0357 25.2848 37.1694 24.6893 36.2091 24.3322C36.5958 24.8101 36.8276 25.4188 36.8276 26.0811C36.8276 26.7433 36.5952 27.352 36.2091 27.83C37.1694 27.4729 38.0357 26.8773 38.7258 26.0811ZM36.6849 21.904L35.8564 23.041C35.7492 23.1875 35.7826 23.3926 35.928 23.4993C35.9846 23.54 36.0525 23.562 36.1222 23.5622C36.2228 23.5622 36.3234 23.5151 36.388 23.4271L37.2143 22.2901C37.3215 22.1436 37.2881 21.9385 37.1426 21.8318C36.995 21.7247 36.7899 21.7575 36.6849 21.904ZM33.7208 21.1499V22.557C33.7208 22.738 33.8685 22.8851 34.049 22.8851C34.23 22.8851 34.3771 22.738 34.3771 22.557V21.1499C34.3771 20.9689 34.2294 20.8218 34.049 20.8218C33.8685 20.8218 33.7208 20.9689 33.7208 21.1499ZM32.2984 23.0082L31.4901 21.8565C31.3873 21.7077 31.1817 21.6722 31.0346 21.7761C30.9991 21.8006 30.9688 21.832 30.9455 21.8683C30.9222 21.9047 30.9063 21.9453 30.8988 21.9879C30.8913 22.0304 30.8924 22.074 30.9019 22.1161C30.9114 22.1582 30.9292 22.1981 30.9542 22.2333L31.7603 23.385C31.7904 23.4281 31.8305 23.4634 31.8771 23.4878C31.9238 23.5121 31.9756 23.5249 32.0283 23.525C32.0955 23.525 32.1601 23.5058 32.218 23.4654C32.3657 23.3615 32.4012 23.1569 32.2984 23.0082ZM35.2198 17.4683C35.3828 17.3923 35.5797 17.4645 35.653 17.6291C35.729 17.7937 35.6573 17.9884 35.4944 18.0644L29.2966 20.9202C29.2518 20.941 29.2053 20.9508 29.1604 20.9508C29.0352 20.9508 28.9171 20.8803 28.8613 20.76C28.8432 20.7208 28.833 20.6785 28.8313 20.6354C28.8296 20.5924 28.8364 20.5494 28.8513 20.5089C28.8663 20.4685 28.889 20.4314 28.9183 20.3998C28.9476 20.3682 28.9829 20.3426 29.0221 20.3247L35.2198 17.4683ZM28.9258 19.1965C28.9561 19.2408 28.9968 19.277 29.0442 19.3021C29.0917 19.3271 29.1445 19.3402 29.1982 19.3403C29.2605 19.3403 29.3256 19.3217 29.3814 19.2834L36.459 14.4725C36.6089 14.3708 36.6466 14.1668 36.546 14.0165C36.4432 13.8666 36.2403 13.8278 36.0905 13.9295L29.0133 18.7404C28.8635 18.8421 28.8258 19.0466 28.9258 19.1965ZM16.1645 28.1012H15.7112C15.365 28.1012 15.0347 28.0323 14.7328 27.9087V31.6461C14.7328 32.042 15.0544 32.3641 15.4497 32.3641C15.8429 32.3641 16.1645 32.042 16.1645 31.6461V28.1012ZM17.6476 27.445V23.1662H15.7112C14.6458 23.1662 13.7769 24.0341 13.7769 25.1011V25.5101C13.7769 26.5771 14.6458 27.445 15.7112 27.445H17.6476ZM24.4125 23.5725C24.3589 23.6081 24.2965 23.6256 24.2358 23.6256C24.1265 23.6256 24.0215 23.5725 23.9591 23.4758C23.9356 23.4395 23.9195 23.399 23.9117 23.3566C23.9039 23.3141 23.9046 23.2705 23.9137 23.2283C23.9229 23.1861 23.9403 23.1461 23.965 23.1107C23.9897 23.0752 24.0211 23.045 24.0576 23.0218C24.3146 22.8545 24.5689 22.6636 24.8101 22.4558C24.9484 22.3377 25.1562 22.3536 25.2744 22.4908C25.3903 22.6281 25.375 22.8354 25.2388 22.9535C24.973 23.1804 24.6963 23.3888 24.4125 23.5725ZM23.2777 23.8236C23.345 23.9925 23.2597 24.1829 23.0923 24.2485C22.3486 24.5389 21.5447 24.7199 20.5641 24.82C20.5532 24.8211 20.5417 24.8216 20.5308 24.8216C20.3634 24.8216 20.2201 24.6953 20.2048 24.5263C20.1846 24.3458 20.3164 24.185 20.4974 24.167C21.4178 24.0735 22.1659 23.905 22.8533 23.6371C23.0234 23.5709 23.2132 23.6546 23.2777 23.8236Z" fill="white"/>
</svg>
