<svg width="51" height="51" viewBox="0 0 51 51" fill="none" xmlns="http://www.w3.org/2000/svg">
<rect x="0.657227" y="0.948242" width="50" height="50" rx="10" fill="#50C878"/>
<g clip-path="url(#clip0_0_991)">
<path d="M37.7953 26.3109C37.7397 26.1981 37.7108 26.074 37.7108 25.9482C37.7108 25.8225 37.7397 25.6984 37.7953 25.5856L38.8396 23.4492C39.421 22.2597 38.9604 20.8419 37.7908 20.2214L35.6903 19.1069C35.579 19.0483 35.4827 18.9649 35.4088 18.8632C35.3348 18.7614 35.2853 18.6441 35.2639 18.5201L34.8531 16.1779C34.6244 14.8739 33.4181 13.9976 32.1074 14.183L29.753 14.5161C29.6285 14.5341 29.5016 14.5232 29.382 14.4843C29.2624 14.4455 29.1533 14.3796 29.0632 14.2919L27.3542 12.6386C26.4025 11.718 24.9118 11.7179 23.9602 12.6386L22.2511 14.2921C22.161 14.3798 22.0519 14.4456 21.9323 14.4845C21.8127 14.5233 21.6858 14.5342 21.5614 14.5162L19.2069 14.1832C17.8958 13.9976 16.6899 14.874 16.4612 16.1781L16.0504 18.5202C16.029 18.6441 15.9795 18.7615 15.9056 18.8632C15.8316 18.965 15.7353 19.0484 15.6241 19.107L13.5235 20.2215C12.354 20.842 11.8933 22.2599 12.4748 23.4494L13.519 25.5857C13.5746 25.6985 13.6035 25.8226 13.6035 25.9483C13.6035 26.0741 13.5746 26.1982 13.519 26.311L12.4747 28.4473C11.8933 29.6368 12.354 31.0546 13.5235 31.6751L15.624 32.7896C15.7353 32.8482 15.8316 32.9316 15.9055 33.0333C15.9795 33.1351 16.029 33.2524 16.0504 33.3764L16.4612 35.7186C16.6694 36.9057 17.6874 37.7383 18.8573 37.7381C18.9725 37.7381 19.0894 37.7301 19.207 37.7134L21.5614 37.3804C21.6859 37.3624 21.8128 37.3732 21.9324 37.4121C22.052 37.451 22.1611 37.5168 22.2512 37.6045L23.9602 39.2579C24.4361 39.7182 25.0465 39.9483 25.6572 39.9483C26.2676 39.9482 26.8784 39.7181 27.3541 39.2579L29.0632 37.6045C29.2476 37.4262 29.4989 37.3447 29.753 37.3804L32.1074 37.7134C33.4187 37.8989 34.6244 37.0226 34.8531 35.7185L35.264 33.3764C35.2853 33.2525 35.3349 33.1351 35.4088 33.0334C35.4827 32.9316 35.579 32.8482 35.6903 32.7896L37.7908 31.6751C38.9604 31.0546 39.421 29.6367 38.8396 28.4472L37.7953 26.3109ZM22.4273 18.6811C24.0598 18.6811 25.388 20.0093 25.388 21.6418C25.388 23.2743 24.0598 24.6025 22.4273 24.6025C20.7948 24.6025 19.4666 23.2743 19.4666 21.6418C19.4666 20.0093 20.7948 18.6811 22.4273 18.6811ZM20.8991 31.8481C20.7414 32.0058 20.5348 32.0846 20.3282 32.0846C20.1216 32.0846 19.9148 32.0058 19.7572 31.8481C19.4419 31.5328 19.4419 31.0215 19.7572 30.7062L30.4152 20.0483C30.7304 19.7329 31.2418 19.7329 31.5571 20.0483C31.8724 20.3636 31.8724 20.8749 31.5571 21.1902L20.8991 31.8481ZM28.8869 33.2154C27.2544 33.2154 25.9262 31.8872 25.9262 30.2547C25.9262 28.6222 27.2544 27.294 28.8869 27.294C30.5194 27.294 31.8476 28.6222 31.8476 30.2547C31.8476 31.8872 30.5194 33.2154 28.8869 33.2154Z" fill="white"/>
<path d="M28.8869 28.909C28.1449 28.909 27.5411 29.5127 27.5411 30.2547C27.5411 30.9968 28.1448 31.6005 28.8869 31.6005C29.629 31.6005 30.2327 30.9968 30.2327 30.2547C30.2327 29.5127 29.629 28.909 28.8869 28.909ZM22.4273 20.296C21.6852 20.296 21.0815 20.8997 21.0815 21.6418C21.0815 22.3838 21.6852 22.9876 22.4273 22.9876C23.1693 22.9876 23.7731 22.3839 23.7731 21.6418C23.773 20.8998 23.1693 20.296 22.4273 20.296Z" fill="white"/>
</g>
<defs>
<clipPath id="clip0_0_991">
<rect width="28" height="28" fill="white" transform="translate(11.6572 11.9482)"/>
</clipPath>
</defs>
</svg>
