<svg width="40" height="41" viewBox="0 0 40 41" fill="none" xmlns="http://www.w3.org/2000/svg">
<rect y="0.475464" width="40" height="40" rx="20" fill="#01BD76"/>
<path fill-rule="evenodd" clip-rule="evenodd" d="M19.9933 12.4755C17.8218 12.4755 17.5487 12.4755 16.6961 12.5222C15.8501 12.5622 15.2639 12.6957 14.7644 12.896C14.2315 13.0962 13.7785 13.3766 13.3322 13.8105C12.9059 14.2777 12.6328 14.7183 12.4263 15.2456C12.2265 15.7529 12.0933 16.3403 12.0533 17.1813C12 18.0491 12 18.3161 12 20.4855C12 22.6549 12 22.9352 12.0466 23.7896C12.0866 24.6373 12.2198 25.2247 12.4197 25.7254C12.6195 26.2594 12.8993 26.7066 13.3389 27.1538C13.8052 27.5677 14.2581 27.8413 14.7843 28.0483C15.2906 28.2485 15.8768 28.382 16.7161 28.4221C17.582 28.4688 17.8485 28.4755 20.02 28.4755C22.1915 28.4755 22.4713 28.4755 23.3239 28.4221C24.1632 28.382 24.7494 28.2485 25.2556 28.0483C25.7885 27.848 26.2281 27.5677 26.6744 27.1271C27.1074 26.6732 27.3805 26.226 27.587 25.6987C27.7868 25.1914 27.9201 24.604 27.9534 23.7629C27.9933 22.8952 28 22.6282 28 20.4521C28 18.276 28 18.0024 27.9534 17.148C27.9134 16.3136 27.7802 15.7262 27.5803 15.2122C27.3805 14.6782 27.0874 14.2443 26.6478 13.7971C26.1882 13.3432 25.7552 13.0762 25.229 12.876C24.7227 12.6757 24.1366 12.5422 23.2973 12.4955C22.438 12.4755 22.1715 12.4755 19.9933 12.4755ZM19.9933 13.9173C22.1249 13.9173 22.378 13.9173 23.224 13.964C24.0033 14.004 24.423 14.1309 24.7094 14.2443C25.0824 14.3778 25.3489 14.5581 25.6286 14.8451C25.9084 15.1121 26.0816 15.3791 26.2281 15.7596C26.3347 16.0466 26.4613 16.4671 26.4946 17.2481C26.5412 18.0958 26.5479 18.3495 26.5479 20.4855C26.5479 22.6215 26.5479 22.8751 26.5012 23.7229C26.4613 24.5038 26.3347 24.9244 26.2215 25.2114C26.0883 25.5852 25.9084 25.8522 25.622 26.1325C25.3555 26.4129 25.0891 26.5864 24.7094 26.7333C24.423 26.8401 24.0033 26.9669 23.224 27.0003C22.378 27.047 22.1249 27.0537 19.9933 27.0537C17.8618 27.0537 17.6087 27.0537 16.7627 27.007C15.9833 26.9669 15.5637 26.8401 15.2773 26.7266C14.9042 26.5931 14.6378 26.4129 14.358 26.1259C14.0783 25.8589 13.9051 25.5919 13.7585 25.2114C13.652 24.9244 13.5254 24.5038 13.4921 23.7229C13.4455 22.8751 13.4388 22.6215 13.4388 20.4855C13.4388 18.3495 13.4388 18.0958 13.4854 17.2481C13.5254 16.4671 13.652 16.0466 13.7652 15.7596C13.8984 15.3858 14.0783 15.1188 14.3647 14.8384C14.6311 14.5581 14.8976 14.3845 15.2773 14.2377C15.5637 14.1309 15.9833 14.004 16.7627 13.9707C17.6087 13.9239 17.8618 13.9173 19.9933 13.9173ZM15.8901 20.4855C15.8901 18.216 17.7286 16.3737 19.9933 16.3737C22.2581 16.3737 24.0966 18.216 24.0966 20.4855C24.0966 22.755 22.2581 24.5973 19.9933 24.5973C17.7286 24.5973 15.8901 22.755 15.8901 20.4855ZM19.9933 23.1555C18.5279 23.1555 17.3289 21.954 17.3289 20.4855C17.3289 19.017 18.5279 17.8155 19.9933 17.8155C21.4588 17.8155 22.6578 19.017 22.6578 20.4855C22.6578 21.954 21.4588 23.1555 19.9933 23.1555ZM24.2631 17.168C24.7893 17.168 25.2223 16.7475 25.2223 16.2135L25.2556 16.1801C25.2556 15.6528 24.8226 15.2189 24.2898 15.2189C23.7569 15.2189 23.3306 15.6728 23.3306 16.2068C23.3306 16.7408 23.7302 17.168 24.2631 17.168Z" fill="white"/>
</svg>
