<svg width="51" height="51" viewBox="0 0 51 51" fill="none" xmlns="http://www.w3.org/2000/svg">
<rect x="0.657227" y="0.507568" width="50" height="50" rx="10" fill="#50C878"/>
<path fill-rule="evenodd" clip-rule="evenodd" d="M39.0327 31.7488L38.0922 31.3868C38.0838 31.3837 38.0764 31.3786 38.0706 31.372C38.0647 31.3653 38.0606 31.3573 38.0586 31.3486C37.933 30.8336 37.7288 30.3411 37.4532 29.8883C37.4485 29.8807 37.4457 29.8722 37.4451 29.8633C37.4445 29.8544 37.4462 29.8456 37.4499 29.8375L37.8593 28.9159C37.8639 28.9058 37.8653 28.8945 37.8633 28.8836C37.8612 28.8726 37.8559 28.8626 37.8479 28.8548L36.743 27.7499C36.7352 27.742 36.7252 27.7366 36.7143 27.7346C36.7034 27.7326 36.6921 27.734 36.682 27.7386L35.76 28.148C35.752 28.1518 35.7431 28.1534 35.7343 28.1528C35.7254 28.1522 35.7168 28.1495 35.7093 28.1448C35.2566 27.8693 34.7642 27.6651 34.2493 27.5395C34.2407 27.5375 34.2327 27.5334 34.226 27.5275C34.2193 27.5217 34.2142 27.5142 34.2112 27.5059L33.8491 26.5651C33.8452 26.5547 33.8382 26.5457 33.829 26.5395C33.8199 26.5332 33.809 26.5299 33.7979 26.53H32.2353C32.2242 26.5299 32.2133 26.5332 32.2042 26.5395C32.195 26.5458 32.188 26.5547 32.1842 26.5651L31.822 27.5059C31.819 27.5142 31.8139 27.5217 31.8072 27.5275C31.8005 27.5334 31.7925 27.5375 31.7839 27.5395C31.269 27.6651 30.7766 27.8693 30.3239 28.1448C30.3163 28.1495 30.3078 28.1522 30.2989 28.1528C30.29 28.1534 30.2812 28.1518 30.2731 28.148L29.3511 27.7386C29.341 27.734 29.3298 27.7326 29.3188 27.7346C29.3079 27.7366 29.2979 27.742 29.2901 27.7499L28.1851 28.8549C28.1772 28.8626 28.1718 28.8727 28.1698 28.8836C28.1678 28.8945 28.1692 28.9058 28.1738 28.9159L28.5833 29.8378C28.587 29.8458 28.5886 29.8547 28.588 29.8636C28.5875 29.8724 28.5847 29.881 28.58 29.8885C28.3045 30.3413 28.1003 30.8338 27.9747 31.3486C27.9727 31.3573 27.9686 31.3653 27.9627 31.372C27.9569 31.3786 27.9495 31.3837 27.9411 31.3868L27.0004 31.7489C26.99 31.7528 26.9811 31.7598 26.9748 31.7689C26.9685 31.7781 26.9652 31.789 26.9653 31.8001V33.3627C26.9653 33.3858 26.9788 33.4055 27.0004 33.4138L27.941 33.7758C27.9493 33.7789 27.9567 33.784 27.9626 33.7907C27.9684 33.7973 27.9726 33.8053 27.9745 33.814C28.1002 34.3289 28.3044 34.8215 28.5799 35.2743C28.5846 35.2818 28.5874 35.2904 28.588 35.2993C28.5886 35.3081 28.5869 35.317 28.5832 35.3251L28.1739 36.2467C28.1693 36.2568 28.1679 36.2681 28.1699 36.279C28.1719 36.2899 28.1773 36.3 28.1852 36.3077L29.2902 37.4127C29.2979 37.4207 29.308 37.426 29.3189 37.428C29.3298 37.4301 29.3411 37.4287 29.3512 37.424L30.2732 37.0146C30.2812 37.0109 30.2901 37.0092 30.299 37.0098C30.3078 37.0103 30.3164 37.0131 30.3239 37.0178C30.7766 37.2933 31.2691 37.4974 31.7839 37.6231C31.8019 37.6275 31.8154 37.6394 31.8221 37.6567L32.1842 38.5975C32.1881 38.6079 32.1951 38.6168 32.2043 38.6231C32.2134 38.6294 32.2243 38.6327 32.2354 38.6326H33.798C33.8091 38.6327 33.82 38.6294 33.8291 38.6231C33.8383 38.6168 33.8453 38.6079 33.8492 38.5975L34.2112 37.6569C34.2143 37.6486 34.2194 37.6411 34.226 37.6353C34.2327 37.6294 34.2407 37.6253 34.2494 37.6233C34.7644 37.4976 35.2569 37.2935 35.7098 37.0179C35.7173 37.0132 35.7259 37.0104 35.7347 37.0098C35.7436 37.0093 35.7524 37.0109 35.7605 37.0146L36.6822 37.424C36.6923 37.4286 36.7035 37.43 36.7145 37.428C36.7254 37.426 36.7354 37.4206 36.7432 37.4127L37.8482 36.3077C37.8561 36.2999 37.8614 36.2899 37.8635 36.279C37.8655 36.268 37.8641 36.2568 37.8595 36.2467L37.45 35.3247C37.4463 35.3166 37.4446 35.3078 37.4452 35.2989C37.4458 35.29 37.4486 35.2814 37.4533 35.2739C37.7288 34.8212 37.9329 34.3288 38.0585 33.8139C38.0605 33.8053 38.0646 33.7973 38.0705 33.7906C38.0764 33.784 38.0838 33.7789 38.0921 33.7758L39.0329 33.4136C39.0433 33.4098 39.0523 33.4028 39.0586 33.3936C39.0648 33.3844 39.0681 33.3736 39.068 33.3624V31.7999C39.0681 31.7888 39.0647 31.778 39.0584 31.7688C39.0521 31.7597 39.0431 31.7527 39.0327 31.7488ZM33.0166 35.4673C31.4225 35.4673 30.1305 34.1753 30.1305 32.5813C30.1305 30.9873 31.4225 29.6953 33.0166 29.6953C34.6106 29.6953 35.9026 30.9873 35.9026 32.5813C35.9026 34.1753 34.6107 35.4673 33.0166 35.4673ZM23.504 18.7521C21.2118 18.7521 19.3535 20.6104 19.3535 22.9026C19.3535 25.1949 21.2117 27.0531 23.504 27.0531C25.7963 27.0531 27.6545 25.1949 27.6545 22.9026C27.6546 20.6104 25.7963 18.7521 23.504 18.7521ZM25.9142 22.1657L23.4034 24.6765C23.0404 25.0396 22.5547 24.892 22.2328 24.57L21.0939 23.4311C20.8091 23.1464 20.8092 22.6804 21.0939 22.3956C21.3787 22.1109 21.8447 22.1108 22.1294 22.3956L22.8713 23.1375L24.8787 21.1302C25.1634 20.8454 25.6294 20.8454 25.9142 21.1302C26.199 21.4149 26.199 21.8809 25.9142 22.1657ZM32.3447 20.8584C32.1222 19.9238 31.752 19.0308 31.2481 18.213L32.0111 16.4949L29.9856 14.4694L28.2671 15.2327C27.4494 14.729 26.5566 14.3589 25.6224 14.1363L24.9473 12.3826H22.0829L21.4078 14.1363C20.4735 14.3588 19.5807 14.729 18.7631 15.2327L17.0446 14.4695L15.0191 16.495L15.7823 18.2134C15.2785 19.0311 14.9083 19.924 14.6858 20.8583L12.9323 21.5333V24.3977L14.6856 25.0726C14.9081 26.0072 15.2783 26.9002 15.7822 27.718L15.0192 29.436L17.0447 31.4615L18.7633 30.6982C19.581 31.202 20.4738 31.5721 21.408 31.7946L22.0831 33.5484H24.9475L25.6223 31.795C25.7826 31.7569 25.9419 31.7144 26.0999 31.6675C26.1233 31.5038 26.1901 31.3494 26.2931 31.2202C26.3962 31.0909 26.5319 30.9915 26.6862 30.9322L27.2447 30.7173C27.3446 30.4081 27.4692 30.1075 27.6174 29.8184L27.3743 29.271C27.2188 28.9208 27.2956 28.5071 27.5666 28.2361L28.6715 27.1311C28.9425 26.8602 29.3561 26.7833 29.7064 26.9388L30.2539 27.182C30.543 27.0339 30.8436 26.9092 31.1526 26.8093L31.3677 26.2507C31.432 26.0834 31.5433 25.9383 31.6883 25.8328C31.8332 25.7273 32.0056 25.666 32.1845 25.6563C32.2443 25.4638 32.2976 25.2691 32.3444 25.0726L34.0982 24.3976V21.5332L32.3447 20.8584ZM23.5151 29.3734C19.9761 29.3734 17.1072 26.5045 17.1072 22.9654C17.1072 19.4264 19.9761 16.5575 23.5151 16.5575C27.0541 16.5575 29.923 19.4264 29.923 22.9654C29.923 26.5045 27.0541 29.3734 23.5151 29.3734Z" fill="white"/>
</svg>
