<svg width="40" height="41" viewBox="0 0 40 41" fill="none" xmlns="http://www.w3.org/2000/svg">
<rect y="0.475464" width="40" height="40" rx="20" fill="#01BD76"/>
<path d="M28 28.4756V22.6156C28 19.7356 27.38 17.5356 24.02 17.5356C22.4 17.5356 21.32 18.4156 20.88 19.2556H20.84V17.7956H17.66V28.4756H20.98V23.1756C20.98 21.7756 21.24 20.4356 22.96 20.4356C24.66 20.4356 24.68 22.0156 24.68 23.2556V28.4556H28V28.4756ZM12.26 17.7956H15.58V28.4756H12.26V17.7956ZM13.92 12.4756C12.86 12.4756 12 13.3356 12 14.3956C12 15.4556 12.86 16.3356 13.92 16.3356C14.98 16.3356 15.84 15.4556 15.84 14.3956C15.84 13.3356 14.98 12.4756 13.92 12.4756Z" fill="white"/>
</svg>
