<svg width="177" height="53" viewBox="0 0 177 53" fill="none" xmlns="http://www.w3.org/2000/svg">
<g clip-path="url(#clip0_0_796)">
<path d="M169.972 0.0114746H6.53739C2.92689 0.0114746 0 2.93836 0 6.54887V45.7732C0 49.3837 2.92689 52.3106 6.53739 52.3106H169.972C173.583 52.3106 176.51 49.3837 176.51 45.7732V6.54887C176.51 2.93836 173.583 0.0114746 169.972 0.0114746Z" fill="black"/>
<path d="M169.972 1.05738C171.428 1.05906 172.824 1.6382 173.853 2.66773C174.883 3.69727 175.462 5.09312 175.463 6.54905V45.7734C175.462 47.2293 174.883 48.6252 173.853 49.6547C172.824 50.6842 171.428 51.2634 169.972 51.2651H6.53739C5.08145 51.2634 3.68562 50.6843 2.65614 49.6547C1.62666 48.6252 1.04759 47.2293 1.04598 45.7734V6.54905C1.04757 5.0931 1.62663 3.69723 2.65611 2.66769C3.6856 1.63816 5.08144 1.05903 6.53739 1.05738H169.972ZM169.972 0.0116577H6.53739C4.80513 0.0167282 3.14526 0.707115 1.92036 1.93202C0.695458 3.15692 0.00507053 4.81678 0 6.54905L0 45.7734C0.00507053 47.5057 0.695458 49.1655 1.92036 50.3904C3.14526 51.6153 4.80513 52.3057 6.53739 52.3108H169.972C171.704 52.3057 173.364 51.6153 174.589 50.3904C175.814 49.1655 176.505 47.5057 176.51 45.7734V6.54905C176.505 4.81678 175.814 3.15692 174.589 1.93202C173.364 0.707115 171.704 0.0167282 169.972 0.0116577Z" fill="#A6A6A6"/>
<path d="M61.9987 13.4043C62.0225 13.8841 61.9484 14.3637 61.7809 14.8139C61.6134 15.2641 61.356 15.6755 61.0244 16.0231C60.6528 16.4085 60.204 16.7111 59.7074 16.9111C59.2108 17.1111 58.6776 17.204 58.1426 17.1837C57.6042 17.1885 57.0703 17.0857 56.5722 16.8812C56.0741 16.6767 55.6219 16.3747 55.2422 15.993C54.8626 15.6113 54.563 15.1575 54.3612 14.6583C54.1594 14.1592 54.0594 13.6247 54.0671 13.0863C54.0594 12.548 54.1595 12.0135 54.3613 11.5143C54.5631 11.0151 54.8627 10.5613 55.2423 10.1796C55.622 9.7978 56.0742 9.49576 56.5722 9.29118C57.0703 9.08661 57.6042 8.98364 58.1426 8.98831C58.6962 8.98664 59.2442 9.09856 59.7528 9.31714C60.2251 9.50861 60.6455 9.80894 60.9798 10.1937L60.2903 10.8838C60.0275 10.5745 59.6972 10.3297 59.3248 10.1683C58.9524 10.0069 58.548 9.93325 58.1426 9.95297C57.7346 9.95086 57.3303 10.0311 56.954 10.1889C56.5777 10.3468 56.2372 10.5789 55.9527 10.8715C55.6683 11.164 55.4458 11.511 55.2986 11.8916C55.1514 12.2722 55.0826 12.6785 55.0962 13.0863C55.0864 13.6972 55.2583 14.2972 55.59 14.8102C55.9217 15.3232 56.3983 15.7262 56.9594 15.968C57.5204 16.2098 58.1406 16.2796 58.7413 16.1685C59.3421 16.0574 59.8963 15.7703 60.3337 15.3438C60.7362 14.9101 60.9696 14.3461 60.9912 13.7547H58.1426V12.8124H61.9438C61.9798 13.0077 61.9982 13.2058 61.9987 13.4043Z" fill="white"/>
<path d="M68.0253 10.1279H64.4528V12.6151H67.6743V13.5576H64.4528V16.0448H68.0253V17.0088H63.4453V9.16391H68.0253V10.1279Z" fill="white"/>
<path d="M72.2759 17.0088H71.2672V10.1279H69.0761V9.16391H74.467V10.1279H72.2759V17.0088Z" fill="white"/>
<path d="M78.3677 17.0088V9.16391H79.3751V17.0088H78.3677Z" fill="white"/>
<path d="M83.8466 17.0088H82.8379V10.1279H80.6469V9.16391H86.0377V10.1279H83.8466V17.0088Z" fill="white"/>
<path d="M96.2428 15.995C95.4792 16.7562 94.445 17.1837 93.3667 17.1837C92.2885 17.1837 91.2542 16.7562 90.4907 15.995C90.1129 15.6124 89.816 15.1577 89.6175 14.658C89.4189 14.1584 89.3229 13.6239 89.3351 13.0863C89.3229 12.5488 89.4189 12.0143 89.6175 11.5147C89.816 11.015 90.1129 10.5603 90.4907 10.1777C90.8681 9.80021 91.3162 9.50084 91.8095 9.29674C92.3028 9.09265 92.8314 8.98784 93.3652 8.98831C93.8991 8.98879 94.4275 9.09454 94.9204 9.29951C95.4133 9.50447 95.8609 9.80464 96.2377 10.1828C96.6157 10.5644 96.9132 11.0181 97.1126 11.5168C97.312 12.0156 97.4092 12.5493 97.3983 13.0863C97.4102 13.6238 97.314 14.1582 97.1155 14.6578C96.917 15.1575 96.6203 15.6122 96.2428 15.995ZM91.235 15.3381C91.8005 15.9026 92.567 16.2197 93.3661 16.2197C94.1652 16.2197 94.9316 15.9026 95.4971 15.3381C95.7871 15.0412 96.0139 14.6886 96.1638 14.3015C96.3137 13.9145 96.3836 13.5011 96.3692 13.0863C96.3836 12.6716 96.3137 12.2582 96.1638 11.8711C96.0139 11.4841 95.7871 11.1315 95.4971 10.8346C94.9316 10.27 94.1652 9.95295 93.3661 9.95295C92.567 9.95295 91.8005 10.27 91.235 10.8346C90.9454 11.1317 90.719 11.4844 90.5693 11.8714C90.4197 12.2584 90.3499 12.6717 90.3642 13.0863C90.3499 13.501 90.4197 13.9143 90.5693 14.3013C90.719 14.6883 90.9454 15.0409 91.235 15.3381Z" fill="white"/>
<path d="M98.813 17.0088V9.16391H100.04L103.853 15.2666H103.896L103.853 13.7547V9.16391H104.861V17.0088H103.809L99.8204 10.6105H99.777L99.8204 12.1223V17.0088H98.813Z" fill="white"/>
<path d="M61.9987 13.4043C62.0225 13.8841 61.9484 14.3637 61.7809 14.8139C61.6134 15.2641 61.356 15.6755 61.0244 16.0231C60.6528 16.4085 60.204 16.7111 59.7074 16.9111C59.2108 17.1111 58.6776 17.204 58.1426 17.1837C57.6042 17.1885 57.0703 17.0857 56.5722 16.8812C56.0741 16.6767 55.6219 16.3747 55.2422 15.993C54.8626 15.6113 54.563 15.1575 54.3612 14.6583C54.1594 14.1592 54.0594 13.6247 54.0671 13.0863C54.0594 12.548 54.1595 12.0135 54.3613 11.5143C54.5631 11.0151 54.8627 10.5613 55.2423 10.1796C55.622 9.7978 56.0742 9.49576 56.5722 9.29118C57.0703 9.08661 57.6042 8.98364 58.1426 8.98831C58.6962 8.98664 59.2442 9.09856 59.7528 9.31714C60.2251 9.50861 60.6455 9.80894 60.9798 10.1937L60.2903 10.8838C60.0275 10.5745 59.6972 10.3297 59.3248 10.1683C58.9524 10.0069 58.548 9.93325 58.1426 9.95297C57.7346 9.95086 57.3303 10.0311 56.954 10.1889C56.5777 10.3468 56.2372 10.5789 55.9527 10.8715C55.6683 11.164 55.4458 11.511 55.2986 11.8916C55.1514 12.2722 55.0826 12.6785 55.0962 13.0863C55.0864 13.6972 55.2583 14.2972 55.59 14.8102C55.9217 15.3232 56.3983 15.7262 56.9594 15.968C57.5204 16.2098 58.1406 16.2796 58.7413 16.1685C59.3421 16.0574 59.8963 15.7703 60.3337 15.3438C60.7362 14.9101 60.9696 14.3461 60.9912 13.7547H58.1426V12.8124H61.9438C61.9798 13.0077 61.9982 13.2058 61.9987 13.4043Z" stroke="white" stroke-width="0.261496" stroke-miterlimit="10"/>
<path d="M68.0253 10.1279H64.4528V12.6151H67.6743V13.5576H64.4528V16.0448H68.0253V17.0088H63.4453V9.16391H68.0253V10.1279Z" stroke="white" stroke-width="0.261496" stroke-miterlimit="10"/>
<path d="M72.2759 17.0088H71.2672V10.1279H69.0761V9.16391H74.467V10.1279H72.2759V17.0088Z" stroke="white" stroke-width="0.261496" stroke-miterlimit="10"/>
<path d="M78.3677 17.0088V9.16391H79.3751V17.0088H78.3677Z" stroke="white" stroke-width="0.261496" stroke-miterlimit="10"/>
<path d="M83.8466 17.0088H82.8379V10.1279H80.6469V9.16391H86.0377V10.1279H83.8466V17.0088Z" stroke="white" stroke-width="0.261496" stroke-miterlimit="10"/>
<path d="M96.2428 15.995C95.4792 16.7562 94.445 17.1837 93.3667 17.1837C92.2885 17.1837 91.2542 16.7562 90.4907 15.995C90.1129 15.6124 89.816 15.1577 89.6175 14.658C89.4189 14.1584 89.3229 13.6239 89.3351 13.0863C89.3229 12.5488 89.4189 12.0143 89.6175 11.5147C89.816 11.015 90.1129 10.5603 90.4907 10.1777C90.8681 9.80021 91.3162 9.50084 91.8095 9.29674C92.3028 9.09265 92.8314 8.98784 93.3652 8.98831C93.8991 8.98879 94.4275 9.09454 94.9204 9.29951C95.4133 9.50447 95.8609 9.80464 96.2377 10.1828C96.6157 10.5644 96.9132 11.0181 97.1126 11.5168C97.312 12.0156 97.4092 12.5493 97.3983 13.0863C97.4102 13.6238 97.314 14.1582 97.1155 14.6578C96.917 15.1575 96.6203 15.6122 96.2428 15.995ZM91.235 15.3381C91.8005 15.9026 92.567 16.2197 93.3661 16.2197C94.1652 16.2197 94.9316 15.9026 95.4971 15.3381C95.7871 15.0412 96.0139 14.6886 96.1638 14.3015C96.3137 13.9145 96.3836 13.5011 96.3692 13.0863C96.3836 12.6716 96.3137 12.2582 96.1638 11.8711C96.0139 11.4841 95.7871 11.1315 95.4971 10.8346C94.9316 10.27 94.1652 9.95295 93.3661 9.95295C92.567 9.95295 91.8005 10.27 91.235 10.8346C90.9454 11.1317 90.719 11.4844 90.5693 11.8714C90.4197 12.2584 90.3499 12.6717 90.3642 13.0863C90.3499 13.501 90.4197 13.9143 90.5693 14.3013C90.719 14.6883 90.9454 15.0409 91.235 15.3381Z" stroke="white" stroke-width="0.261496" stroke-miterlimit="10"/>
<path d="M98.813 17.0088V9.16391H100.04L103.853 15.2666H103.896L103.853 13.7547V9.16391H104.861V17.0088H103.809L99.8204 10.6105H99.777L99.8204 12.1223V17.0088H98.813Z" stroke="white" stroke-width="0.261496" stroke-miterlimit="10"/>
<path d="M89.0862 28.4513C87.9872 28.4555 86.9142 28.7852 86.0024 29.3988C85.0907 30.0123 84.3812 30.8823 83.9636 31.8988C83.5459 32.9153 83.4388 34.0327 83.6558 35.1101C83.8727 36.1874 84.404 37.1763 85.1826 37.9519C85.9611 38.7275 86.952 39.255 88.0302 39.4679C89.1083 39.6807 90.2253 39.5694 91.2402 39.1478C92.2551 38.7263 93.1224 38.0135 93.7325 37.0995C94.3426 36.1855 94.6682 35.1111 94.6682 34.0122C94.679 33.2771 94.5418 32.5474 94.2649 31.8665C93.9879 31.1856 93.5768 30.5673 93.056 30.0485C92.5352 29.5296 91.9154 29.1209 91.2334 28.8465C90.5514 28.5721 89.8212 28.4377 89.0862 28.4513ZM89.0862 37.3825C88.4094 37.4307 87.7338 37.2741 87.1472 36.933C86.5607 36.5919 86.0905 36.0821 85.7977 35.47C85.505 34.8579 85.4034 34.1718 85.506 33.5011C85.6086 32.8304 85.9108 32.2062 86.3732 31.7097C86.8356 31.2131 87.4368 30.8673 88.0985 30.7172C88.7602 30.5671 89.4517 30.6197 90.0831 30.8681C90.7145 31.1166 91.2564 31.5494 91.6384 32.1101C92.0203 32.6709 92.2246 33.3337 92.2247 34.0122C92.2452 34.4408 92.1798 34.8692 92.0322 35.2722C91.8847 35.6752 91.658 36.0446 91.3656 36.3586C91.0731 36.6727 90.7208 36.9251 90.3293 37.1009C89.9379 37.2767 89.5152 37.3725 89.0862 37.3825ZM76.9091 28.4513C75.8102 28.4555 74.7371 28.7851 73.8253 29.3987C72.9136 30.0123 72.2041 30.8822 71.7864 31.8987C71.3687 32.9152 71.2616 34.0327 71.4785 35.11C71.6955 36.1873 72.2268 37.1762 73.0053 37.9518C73.7839 38.7275 74.7748 39.255 75.8529 39.4679C76.9311 39.6807 78.0481 39.5694 79.063 39.1479C80.0779 38.7263 80.9452 38.0136 81.5553 37.0995C82.1654 36.1855 82.491 35.1111 82.491 34.0122C82.5018 33.2772 82.3646 32.5475 82.0877 31.8665C81.8107 31.1856 81.3996 30.5673 80.8788 30.0485C80.3581 29.5297 79.7383 29.1209 79.0563 28.8466C78.3743 28.5722 77.6441 28.4378 76.9091 28.4513ZM76.9091 37.3825C76.2323 37.4307 75.5567 37.2741 74.9702 36.933C74.3837 36.5919 73.9134 36.0821 73.6207 35.47C73.328 34.8579 73.2263 34.1718 73.3289 33.5011C73.4316 32.8304 73.7337 32.2062 74.1961 31.7097C74.6585 31.2131 75.2597 30.8673 75.9214 30.7172C76.5831 30.5671 77.2746 30.6197 77.906 30.8681C78.5374 31.1166 79.0793 31.5494 79.4613 32.1101C79.8433 32.6709 80.0476 33.3337 80.0476 34.0122C80.0681 34.4408 80.0027 34.8693 79.8552 35.2722C79.7077 35.6752 79.481 36.0446 79.1885 36.3587C78.8961 36.6727 78.5438 36.9251 78.1523 37.1009C77.7608 37.2767 77.3381 37.3725 76.9091 37.3825ZM62.4238 30.1576V32.5167H68.0691C67.9877 33.6232 67.5349 34.6698 66.7841 35.4868C66.2184 36.0634 65.5381 36.515 64.7871 36.8125C64.036 37.11 63.231 37.2468 62.4238 37.2139C60.7738 37.1916 59.1988 36.5204 58.0399 35.3457C56.8809 34.1709 56.2312 32.5871 56.2312 30.9369C56.2312 29.2866 56.8809 27.7028 58.0399 26.528C59.1988 25.3533 60.7738 24.6821 62.4238 24.6598C64.0088 24.6391 65.5379 25.2446 66.6789 26.3449L68.3429 24.6808C67.5644 23.9101 66.6398 23.3025 65.6234 22.8938C64.607 22.4851 63.5192 22.2834 62.4238 22.3006C61.2791 22.2839 60.1425 22.495 59.0801 22.9215C58.0177 23.348 57.0507 23.9815 56.2353 24.7851C55.4199 25.5887 54.7724 26.5464 54.3304 27.6025C53.8885 28.6586 53.6609 29.792 53.6609 30.9369C53.6609 32.0817 53.8885 33.2151 54.3304 34.2712C54.7724 35.3273 55.4199 36.285 56.2353 37.0886C57.0507 37.8922 58.0177 38.5257 59.0801 38.9522C60.1425 39.3787 61.2791 39.5898 62.4238 39.5731C63.5423 39.6195 64.6579 39.4275 65.6965 39.0099C66.7352 38.5923 67.6731 37.9586 68.4482 37.1508C69.8242 35.6488 70.5576 33.6679 70.4915 31.632C70.4969 31.1376 70.4545 30.6439 70.3649 30.1576H62.4238ZM121.663 31.99C121.329 30.9828 120.693 30.1028 119.841 29.4697C118.99 28.8366 117.964 28.4811 116.903 28.4513C116.188 28.4558 115.482 28.605 114.827 28.8901C114.172 29.1752 113.581 29.5902 113.091 30.11C112.601 30.6298 112.221 31.2436 111.975 31.9143C111.729 32.585 111.621 33.2987 111.658 34.0122C111.642 34.7433 111.773 35.4702 112.045 36.1493C112.316 36.8285 112.721 37.4461 113.236 37.9652C113.751 38.4842 114.366 38.8942 115.043 39.1704C115.72 39.4467 116.446 39.5837 117.177 39.5731C118.093 39.5782 118.996 39.3557 119.805 38.9255C120.614 38.4954 121.303 37.8711 121.811 37.1087L119.915 35.8449C119.631 36.3165 119.229 36.7062 118.749 36.9758C118.269 37.2454 117.727 37.3855 117.177 37.3825C116.61 37.4041 116.05 37.2551 115.57 36.9546C115.089 36.6541 114.709 36.2161 114.481 35.6974L121.916 32.6221L121.663 31.99ZM114.08 33.8438C114.054 33.439 114.109 33.0331 114.242 32.6498C114.374 32.2665 114.582 31.9135 114.853 31.6115C115.123 31.3094 115.451 31.0644 115.818 30.8907C116.184 30.717 116.582 30.6181 116.987 30.5999C117.409 30.5722 117.83 30.6692 118.197 30.879C118.564 31.0888 118.861 31.402 119.051 31.7795L114.08 33.8438ZM108.035 39.2361H110.478V22.8905H108.035V39.2361ZM104.033 29.6941H103.949C103.577 29.2905 103.124 28.9709 102.619 28.7565C102.114 28.5422 101.569 28.4382 101.021 28.4513C99.5867 28.5124 98.2318 29.1249 97.2387 30.1611C96.2457 31.1973 95.6913 32.577 95.6913 34.0122C95.6913 35.4474 96.2457 36.8272 97.2387 37.8634C98.2318 38.8996 99.5867 39.5121 101.021 39.5731C101.571 39.5878 102.118 39.4823 102.624 39.2641C103.13 39.0458 103.582 38.72 103.949 38.3093H104.033V39.1098C104.033 41.2373 102.895 42.3747 101.063 42.3747C100.452 42.3601 99.8593 42.1639 99.3604 41.8113C98.8615 41.4587 98.4789 40.9655 98.2613 40.3946L96.1338 41.2794C96.5347 42.2557 97.2181 43.09 98.0962 43.6754C98.9744 44.2608 100.007 44.5707 101.063 44.5654C103.927 44.5654 106.35 42.8803 106.35 38.7727V28.7883H104.033V29.6941ZM101.231 37.3825C100.387 37.3109 99.5999 36.9248 99.0265 36.3006C98.453 35.6765 98.1348 34.8598 98.1348 34.0122C98.1348 33.1647 98.453 32.348 99.0265 31.7239C99.5999 31.0997 100.387 30.7136 101.231 30.642C101.652 30.6625 102.063 30.7674 102.442 30.9505C102.821 31.1335 103.159 31.3909 103.436 31.7074C103.713 32.0239 103.924 32.3929 104.055 32.7925C104.187 33.1921 104.236 33.614 104.201 34.0332C104.234 34.4498 104.183 34.8688 104.05 35.265C103.917 35.6613 103.706 36.0266 103.428 36.3393C103.151 36.652 102.814 36.9055 102.436 37.0848C102.059 37.264 101.649 37.3653 101.231 37.3825ZM133.109 22.8908H127.263V39.2361H129.702V33.0433H133.109C133.799 33.0812 134.489 32.9779 135.138 32.7399C135.787 32.5019 136.381 32.1341 136.882 31.659C137.384 31.1839 137.784 30.6115 138.057 29.9767C138.33 29.3419 138.471 28.6581 138.471 27.9671C138.471 27.276 138.33 26.5922 138.057 25.9574C137.784 25.3226 137.384 24.7502 136.882 24.2751C136.381 23.8 135.787 23.4322 135.138 23.1942C134.489 22.9562 133.799 22.8529 133.109 22.8908ZM133.172 30.7686H129.702V25.1657H133.172C133.545 25.1579 133.915 25.2247 134.262 25.362C134.609 25.4993 134.924 25.7044 135.191 25.9653C135.457 26.2262 135.669 26.5377 135.813 26.8814C135.958 27.2252 136.032 27.5943 136.032 27.9671C136.032 28.34 135.958 28.7091 135.813 29.0528C135.669 29.3966 135.457 29.708 135.191 29.9689C134.924 30.2298 134.609 30.4349 134.262 30.5722C133.915 30.7096 133.545 30.7763 133.172 30.7686ZM148.249 28.4213C147.359 28.3693 146.473 28.5784 145.7 29.0229C144.926 29.4674 144.3 30.128 143.896 30.9237L146.062 31.8279C146.277 31.433 146.602 31.1093 146.998 30.8964C147.394 30.6835 147.844 30.5906 148.291 30.6292C148.91 30.5688 149.528 30.7562 150.009 31.1504C150.49 31.5446 150.795 32.1133 150.857 32.732V32.9003C150.074 32.4841 149.2 32.2674 148.312 32.2694C145.978 32.2694 143.602 33.5522 143.602 35.9495C143.625 36.4547 143.749 36.9502 143.967 37.4066C144.184 37.863 144.492 38.271 144.87 38.6064C145.249 38.9418 145.691 39.1977 146.17 39.359C146.649 39.5203 147.156 39.5836 147.661 39.5453C148.275 39.5815 148.888 39.4523 149.435 39.1712C149.982 38.8901 150.444 38.4674 150.773 37.9472H150.857V39.2089H153.212V32.9424C153.212 30.0405 151.046 28.4213 148.249 28.4213ZM147.955 37.3793C147.156 37.3793 146.041 36.9799 146.041 35.9914C146.041 34.7299 147.429 34.2461 148.628 34.2461C149.407 34.2254 150.176 34.4142 150.857 34.7929C150.767 35.5018 150.424 36.1544 149.891 36.6299C149.357 37.1053 148.67 37.3716 147.955 37.3793ZM161.792 28.7787L158.995 35.8653H158.911L156.009 28.7787H153.38L157.733 38.6831L155.252 44.1926H157.796L164.504 28.7787H161.792ZM139.817 39.2361H142.256V22.8908H139.817V39.2361Z" fill="white"/>
<path d="M13.6438 9.86738C13.215 10.38 12.9986 11.0372 13.0387 11.7043V40.6206C12.9984 41.2877 13.2149 41.9449 13.6438 42.4575L13.7405 42.5517L29.9389 26.3535V25.9713L13.7405 9.77246L13.6438 9.86738Z" fill="url(#paint0_linear_0_796)"/>
<path d="M35.3381 31.7552L29.939 26.3535V25.9713L35.3394 20.5709L35.4611 20.6404L41.8583 24.2753C43.6857 25.3134 43.6857 27.0121 41.8583 28.0509L35.4611 31.6858L35.3381 31.7552Z" fill="url(#paint1_linear_0_796)"/>
<path d="M35.4608 31.6851L29.9387 26.1625L13.6436 42.4574C14.0159 42.7858 14.4914 42.9736 14.9876 42.9883C15.4838 43.0029 15.9696 42.8435 16.3606 42.5377L35.4608 31.6851Z" fill="url(#paint2_linear_0_796)"/>
<path d="M35.4608 20.6397L16.3606 9.78712C15.9696 9.48129 15.4838 9.3219 14.9876 9.33656C14.4914 9.35122 14.0159 9.53901 13.6436 9.8674L29.9387 26.1625L35.4608 20.6397Z" fill="url(#paint3_linear_0_796)"/>
<path opacity="0.2" d="M35.3391 31.5635L16.3606 42.3467C15.9846 42.633 15.5257 42.7891 15.0531 42.7916C14.5806 42.7942 14.12 42.6429 13.741 42.3607L13.6436 42.4581L13.7403 42.5524L13.741 42.5517C14.1199 42.8341 14.5805 42.9854 15.0531 42.9829C15.5257 42.9804 15.9847 42.8241 16.3606 42.5377L35.4608 31.6851L35.3391 31.5635Z" fill="black"/>
<path opacity="0.12" d="M13.6438 42.2671C13.2151 41.7545 12.9986 41.0973 13.0387 40.4302V40.6213C12.9986 41.2883 13.215 41.9455 13.6438 42.4581L13.7412 42.3607L13.6438 42.2671Z" fill="black"/>
<path opacity="0.12" d="M41.8583 27.8592L35.3394 31.5636L35.4611 31.6852L41.8583 28.0502C42.2346 27.8869 42.5603 27.6257 42.8013 27.2938C43.0424 26.9619 43.1901 26.5714 43.2289 26.163C43.1481 26.5328 42.9821 26.8787 42.7441 27.1731C42.5062 27.4676 42.2029 27.7025 41.8583 27.8592Z" fill="black"/>
<path opacity="0.25" d="M16.361 9.97886L41.8584 24.4657C42.2031 24.6224 42.5065 24.8574 42.7445 25.152C42.9824 25.4466 43.1483 25.7926 43.229 26.1626C43.1904 25.754 43.0428 25.3633 42.8018 25.0313C42.5607 24.6992 42.2349 24.4379 41.8584 24.2747L16.361 9.78784C14.5337 8.74957 13.0388 9.61198 13.0388 11.705V11.896C13.0388 9.80314 14.5337 8.94072 16.361 9.97886Z" fill="white"/>
</g>
<defs>
<linearGradient id="paint0_linear_0_796" x1="28.5024" y1="11.3994" x2="6.55978" y2="33.342" gradientUnits="userSpaceOnUse">
<stop stop-color="#00A0FF"/>
<stop offset="0.00657" stop-color="#00A1FF"/>
<stop offset="0.2601" stop-color="#00BEFF"/>
<stop offset="0.5122" stop-color="#00D2FF"/>
<stop offset="0.7604" stop-color="#00DFFF"/>
<stop offset="1" stop-color="#00E3FF"/>
</linearGradient>
<linearGradient id="paint1_linear_0_796" x1="44.2375" y1="26.1631" x2="12.6006" y2="26.1631" gradientUnits="userSpaceOnUse">
<stop stop-color="#FFE000"/>
<stop offset="0.4087" stop-color="#FFBD00"/>
<stop offset="0.7754" stop-color="#FFA500"/>
<stop offset="1" stop-color="#FF9C00"/>
</linearGradient>
<linearGradient id="paint2_linear_0_796" x1="32.4602" y1="29.1633" x2="2.70424" y2="58.9192" gradientUnits="userSpaceOnUse">
<stop stop-color="#FF3A44"/>
<stop offset="1" stop-color="#C31162"/>
</linearGradient>
<linearGradient id="paint3_linear_0_796" x1="9.5406" y1="0.241976" x2="22.8279" y2="13.5293" gradientUnits="userSpaceOnUse">
<stop stop-color="#32A071"/>
<stop offset="0.0685" stop-color="#2DA771"/>
<stop offset="0.4762" stop-color="#15CF74"/>
<stop offset="0.8009" stop-color="#06E775"/>
<stop offset="1" stop-color="#00F076"/>
</linearGradient>
<clipPath id="clip0_0_796">
<rect width="176.51" height="52.2994" fill="white" transform="translate(0 0.0114746)"/>
</clipPath>
</defs>
</svg>
