<svg width="143" height="43" viewBox="0 0 143 43" fill="none" xmlns="http://www.w3.org/2000/svg">
<g clip-path="url(#clip0_0_1226)">
<path d="M137.066 0.312195H5.5847C2.68009 0.312195 0.325439 2.66269 0.325439 5.56217V37.062C0.325439 39.9615 2.68009 42.312 5.5847 42.312H137.066C139.971 42.312 142.325 39.9615 142.325 37.062V5.56217C142.325 2.66269 139.971 0.312195 137.066 0.312195Z" fill="black"/>
<path d="M137.066 1.15216C138.237 1.15351 139.36 1.6186 140.189 2.44539C141.017 3.27218 141.483 4.39314 141.484 5.56235V37.0622C141.483 38.2314 141.017 39.3524 140.189 40.1791C139.36 41.0059 138.237 41.471 137.066 41.4724H5.5847C4.41341 41.471 3.29048 41.006 2.46228 40.1792C1.63407 39.3524 1.16822 38.2314 1.16692 37.0622V5.56235C1.1682 4.39312 1.63404 3.27215 2.46225 2.44536C3.29047 1.61857 4.4134 1.15349 5.5847 1.15216H137.066ZM137.066 0.312378H5.5847C4.19111 0.31645 2.85577 0.870878 1.87035 1.85456C0.884927 2.83824 0.329519 4.17122 0.325439 5.56235L0.325439 37.0622C0.329519 38.4533 0.884927 39.7863 1.87035 40.77C2.85577 41.7537 4.19111 42.3081 5.5847 42.3122H137.066C138.46 42.3081 139.795 41.7537 140.781 40.77C141.766 39.7863 142.321 38.4533 142.325 37.0622V5.56235C142.321 4.17122 141.766 2.83824 140.781 1.85456C139.795 0.870878 138.46 0.31645 137.066 0.312378Z" fill="#A6A6A6"/>
<path d="M50.2023 11.0676C50.2214 11.4529 50.1618 11.838 50.0271 12.1996C49.8923 12.5611 49.6852 12.8915 49.4185 13.1706C49.1195 13.4801 48.7585 13.7231 48.359 13.8838C47.9595 14.0444 47.5305 14.119 47.1001 14.1027C46.667 14.1066 46.2374 14.024 45.8367 13.8598C45.436 13.6956 45.0723 13.4531 44.7668 13.1465C44.4613 12.8399 44.2203 12.4755 44.058 12.0747C43.8956 11.6738 43.8152 11.2446 43.8214 10.8122C43.8152 10.3799 43.8957 9.95067 44.0581 9.5498C44.2204 9.14893 44.4614 8.7845 44.7669 8.47791C45.0723 8.17132 45.4361 7.92875 45.8368 7.76447C46.2374 7.60018 46.667 7.51749 47.1001 7.52124C47.5454 7.5199 47.9863 7.60977 48.3955 7.78531C48.7755 7.93908 49.1137 8.18026 49.3826 8.48923L48.8279 9.04342C48.6165 8.79504 48.3507 8.59847 48.0512 8.46887C47.7516 8.33926 47.4262 8.28009 47.1001 8.29593C46.7718 8.29423 46.4466 8.35869 46.1439 8.48543C45.8412 8.61218 45.5672 8.79861 45.3384 9.03356C45.1095 9.2685 44.9306 9.54713 44.8122 9.85276C44.6938 10.1584 44.6384 10.4847 44.6493 10.8122C44.6415 11.3028 44.7797 11.7846 45.0466 12.1966C45.3135 12.6086 45.6969 12.9322 46.1482 13.1264C46.5995 13.3206 47.0985 13.3767 47.5818 13.2874C48.0651 13.1982 48.5109 12.9677 48.8628 12.6252C49.1867 12.2768 49.3744 11.8239 49.3918 11.349H47.1001V10.5923H50.1582C50.1871 10.7491 50.2019 10.9082 50.2023 11.0676Z" fill="white"/>
<path d="M55.0506 8.43642H52.1766V10.4338H54.7682V11.1907H52.1766V13.1881H55.0506V13.9622H51.3661V7.66225H55.0506V8.43642Z" fill="white"/>
<path d="M58.4702 13.9622H57.6587V8.43642H55.896V7.66225H60.2329V8.43642H58.4702V13.9622Z" fill="white"/>
<path d="M63.371 13.9622V7.66225H64.1814V13.9622H63.371Z" fill="white"/>
<path d="M67.7787 13.9622H66.9672V8.43642H65.2046V7.66225H69.5414V8.43642H67.7787V13.9622Z" fill="white"/>
<path d="M77.7513 13.1481C77.137 13.7594 76.305 14.1027 75.4375 14.1027C74.5701 14.1027 73.7381 13.7594 73.1238 13.1481C72.8199 12.8408 72.581 12.4757 72.4213 12.0744C72.2616 11.6731 72.1843 11.2439 72.1941 10.8122C72.1843 10.3806 72.2616 9.95134 72.4213 9.55007C72.581 9.1488 72.8199 8.78368 73.1238 8.47642C73.4274 8.17325 73.7879 7.93284 74.1847 7.76893C74.5816 7.60503 75.0069 7.52086 75.4363 7.52124C75.8658 7.52162 76.2909 7.60655 76.6875 7.77115C77.084 7.93576 77.4441 8.17681 77.7472 8.48052C78.0513 8.78696 78.2906 9.15127 78.451 9.55181C78.6114 9.95235 78.6896 10.381 78.6809 10.8122C78.6905 11.2439 78.6131 11.673 78.4534 12.0743C78.2937 12.4755 78.055 12.8406 77.7513 13.1481ZM73.7226 12.6205C74.1775 13.0739 74.7941 13.3286 75.437 13.3286C76.0799 13.3286 76.6965 13.0739 77.1514 12.6205C77.3847 12.3821 77.5672 12.0989 77.6878 11.7881C77.8083 11.4773 77.8646 11.1453 77.853 10.8122C77.8646 10.4791 77.8083 10.1472 77.6878 9.83635C77.5672 9.52555 77.3847 9.24237 77.1514 9.00394C76.6965 8.55056 76.0799 8.29592 75.437 8.29592C74.7941 8.29592 74.1775 8.55056 73.7226 9.00394C73.4896 9.24256 73.3074 9.52579 73.187 9.83657C73.0667 10.1473 73.0105 10.4792 73.022 10.8122C73.0105 11.1452 73.0667 11.4771 73.187 11.7879C73.3074 12.0987 73.4896 12.3819 73.7226 12.6205Z" fill="white"/>
<path d="M79.819 13.9622V7.66225H80.8062L83.8734 12.5631H83.9083L83.8734 11.349V7.66225H84.6849V13.9622H83.8385L80.6295 8.82397H80.5945L80.6295 10.0381V13.9622H79.819Z" fill="white"/>
<path d="M50.2023 11.0676C50.2214 11.4529 50.1618 11.838 50.0271 12.1996C49.8923 12.5611 49.6852 12.8915 49.4185 13.1706C49.1195 13.4801 48.7585 13.7231 48.359 13.8838C47.9595 14.0444 47.5305 14.119 47.1001 14.1027C46.667 14.1066 46.2374 14.024 45.8367 13.8598C45.436 13.6956 45.0723 13.4531 44.7668 13.1465C44.4613 12.8399 44.2203 12.4755 44.058 12.0747C43.8956 11.6738 43.8152 11.2446 43.8214 10.8122C43.8152 10.3799 43.8957 9.95067 44.0581 9.5498C44.2204 9.14893 44.4614 8.7845 44.7669 8.47791C45.0723 8.17132 45.4361 7.92875 45.8368 7.76447C46.2374 7.60018 46.667 7.51749 47.1001 7.52124C47.5454 7.5199 47.9863 7.60977 48.3955 7.78531C48.7755 7.93908 49.1137 8.18026 49.3826 8.48923L48.8279 9.04342C48.6165 8.79504 48.3507 8.59847 48.0512 8.46887C47.7516 8.33926 47.4262 8.28009 47.1001 8.29593C46.7718 8.29423 46.4466 8.35869 46.1439 8.48543C45.8412 8.61218 45.5672 8.79861 45.3384 9.03356C45.1095 9.2685 44.9306 9.54713 44.8122 9.85276C44.6938 10.1584 44.6384 10.4847 44.6493 10.8122C44.6415 11.3028 44.7797 11.7846 45.0466 12.1966C45.3135 12.6086 45.6969 12.9322 46.1482 13.1264C46.5995 13.3206 47.0985 13.3767 47.5818 13.2874C48.0651 13.1982 48.5109 12.9677 48.8628 12.6252C49.1867 12.2768 49.3744 11.8239 49.3918 11.349H47.1001V10.5923H50.1582C50.1871 10.7491 50.2019 10.9082 50.2023 11.0676Z" stroke="white" stroke-width="0.209786" stroke-miterlimit="10"/>
<path d="M55.0506 8.43642H52.1766V10.4338H54.7682V11.1907H52.1766V13.1881H55.0506V13.9622H51.3661V7.66225H55.0506V8.43642Z" stroke="white" stroke-width="0.209786" stroke-miterlimit="10"/>
<path d="M58.4702 13.9622H57.6587V8.43642H55.896V7.66225H60.2329V8.43642H58.4702V13.9622Z" stroke="white" stroke-width="0.209786" stroke-miterlimit="10"/>
<path d="M63.371 13.9622V7.66225H64.1814V13.9622H63.371Z" stroke="white" stroke-width="0.209786" stroke-miterlimit="10"/>
<path d="M67.7787 13.9622H66.9672V8.43642H65.2046V7.66225H69.5414V8.43642H67.7787V13.9622Z" stroke="white" stroke-width="0.209786" stroke-miterlimit="10"/>
<path d="M77.7513 13.1481C77.137 13.7594 76.305 14.1027 75.4375 14.1027C74.5701 14.1027 73.7381 13.7594 73.1238 13.1481C72.8199 12.8408 72.581 12.4757 72.4213 12.0744C72.2616 11.6731 72.1843 11.2439 72.1941 10.8122C72.1843 10.3806 72.2616 9.95134 72.4213 9.55007C72.581 9.1488 72.8199 8.78368 73.1238 8.47642C73.4274 8.17325 73.7879 7.93284 74.1847 7.76893C74.5816 7.60503 75.0069 7.52086 75.4363 7.52124C75.8658 7.52162 76.2909 7.60655 76.6875 7.77115C77.084 7.93576 77.4441 8.17681 77.7472 8.48052C78.0513 8.78696 78.2906 9.15127 78.451 9.55181C78.6114 9.95235 78.6896 10.381 78.6809 10.8122C78.6905 11.2439 78.6131 11.673 78.4534 12.0743C78.2937 12.4755 78.055 12.8406 77.7513 13.1481ZM73.7226 12.6205C74.1775 13.0739 74.7941 13.3286 75.437 13.3286C76.0799 13.3286 76.6965 13.0739 77.1514 12.6205C77.3847 12.3821 77.5672 12.0989 77.6878 11.7881C77.8083 11.4773 77.8646 11.1453 77.853 10.8122C77.8646 10.4791 77.8083 10.1472 77.6878 9.83635C77.5672 9.52555 77.3847 9.24237 77.1514 9.00394C76.6965 8.55056 76.0799 8.29592 75.437 8.29592C74.7941 8.29592 74.1775 8.55056 73.7226 9.00394C73.4896 9.24256 73.3074 9.52579 73.187 9.83657C73.0667 10.1473 73.0105 10.4792 73.022 10.8122C73.0105 11.1452 73.0667 11.4771 73.187 11.7879C73.3074 12.0987 73.4896 12.3819 73.7226 12.6205Z" stroke="white" stroke-width="0.209786" stroke-miterlimit="10"/>
<path d="M79.819 13.9622V7.66225H80.8062L83.8734 12.5631H83.9083L83.8734 11.349V7.66225H84.6849V13.9622H83.8385L80.6295 8.82397H80.5945L80.6295 10.0381V13.9622H79.819Z" stroke="white" stroke-width="0.209786" stroke-miterlimit="10"/>
<path d="M71.9941 23.1514C71.11 23.1547 70.2468 23.4195 69.5133 23.9122C68.7798 24.405 68.2091 25.1036 67.8731 25.9199C67.5371 26.7362 67.4509 27.6336 67.6254 28.4988C67.8 29.3639 68.2274 30.1581 68.8537 30.781C69.4801 31.4038 70.2772 31.8275 71.1446 31.9984C72.0119 32.1693 72.9106 32.0799 73.7271 31.7414C74.5435 31.4029 75.2412 30.8305 75.732 30.0964C76.2229 29.3624 76.4848 28.4996 76.4848 27.6171C76.4935 27.0268 76.3831 26.4408 76.1603 25.894C75.9375 25.3471 75.6068 24.8506 75.1878 24.434C74.7688 24.0173 74.2702 23.6891 73.7215 23.4687C73.1729 23.2484 72.5854 23.1404 71.9941 23.1514ZM71.9941 30.3237C71.4497 30.3624 70.9061 30.2366 70.4343 29.9627C69.9624 29.6888 69.5841 29.2794 69.3486 28.7878C69.1131 28.2963 69.0313 27.7453 69.1139 27.2067C69.1965 26.6681 69.4396 26.1668 69.8116 25.768C70.1836 25.3692 70.6672 25.0915 71.1995 24.971C71.7318 24.8505 72.2882 24.8927 72.7961 25.0922C73.3041 25.2917 73.7401 25.6393 74.0473 26.0896C74.3546 26.54 74.519 27.0722 74.519 27.6171C74.5355 27.9613 74.4829 28.3054 74.3642 28.629C74.2455 28.9526 74.0632 29.2493 73.8279 29.5015C73.5926 29.7537 73.3092 29.9563 72.9942 30.0975C72.6793 30.2387 72.3393 30.3156 71.9941 30.3237ZM62.1978 23.1514C61.3137 23.1547 60.4504 23.4194 59.717 23.9122C58.9835 24.4049 58.4127 25.1035 58.0767 25.9198C57.7406 26.7361 57.6545 27.6335 57.829 28.4987C58.0035 29.3639 58.4309 30.158 59.0573 30.7809C59.6836 31.4038 60.4808 31.8274 61.3481 31.9984C62.2155 32.1693 63.1141 32.0799 63.9306 31.7414C64.7471 31.4029 65.4448 30.8305 65.9356 30.0964C66.4264 29.3624 66.6884 28.4996 66.6884 27.6171C66.6971 27.0268 66.5867 26.4408 66.3639 25.894C66.1411 25.3472 65.8104 24.8506 65.3914 24.434C64.9725 24.0174 64.4738 23.6891 63.9252 23.4687C63.3765 23.2484 62.7891 23.1405 62.1978 23.1514ZM62.1978 30.3237C61.6533 30.3624 61.1098 30.2366 60.638 29.9627C60.1661 29.6888 59.7878 29.2794 59.5523 28.7878C59.3168 28.2963 59.235 27.7453 59.3176 27.2067C59.4002 26.6681 59.6433 26.1668 60.0153 25.768C60.3872 25.3692 60.8709 25.0915 61.4032 24.971C61.9355 24.8505 62.4919 24.8927 62.9998 25.0922C63.5077 25.2917 63.9437 25.6393 64.251 26.0896C64.5583 26.54 64.7227 27.0722 64.7227 27.6171C64.7392 27.9613 64.6866 28.3054 64.5679 28.629C64.4492 28.9526 64.2669 29.2493 64.0316 29.5015C63.7963 29.7537 63.5129 29.9564 63.1979 30.0976C62.883 30.2388 62.543 30.3156 62.1978 30.3237ZM50.5446 24.5216V26.4161H55.0861C55.0206 27.3047 54.6563 28.1452 54.0524 28.8013C53.5973 29.2644 53.0499 29.6271 52.4457 29.866C51.8416 30.1049 51.1939 30.2147 50.5446 30.1883C49.2171 30.1704 47.9501 29.6314 47.0177 28.688C46.0854 27.7446 45.5626 26.4726 45.5626 25.1474C45.5626 23.8222 46.0854 22.5502 47.0177 21.6068C47.9501 20.6634 49.2171 20.1244 50.5446 20.1065C51.8196 20.0899 53.0498 20.5761 53.9677 21.4597L55.3064 20.1234C54.6801 19.5044 53.9363 19.0165 53.1186 18.6883C52.3009 18.36 51.4258 18.1981 50.5446 18.2119C49.6236 18.1985 48.7093 18.368 47.8546 18.7105C46.9999 19.0531 46.2219 19.5618 45.5659 20.2072C44.91 20.8525 44.3891 21.6216 44.0335 22.4697C43.678 23.3178 43.4949 24.228 43.4949 25.1474C43.4949 26.0668 43.678 26.977 44.0335 27.8251C44.3891 28.6732 44.91 29.4423 45.5659 30.0877C46.2219 30.733 46.9999 31.2417 47.8546 31.5843C48.7093 31.9268 49.6236 32.0963 50.5446 32.0829C51.4444 32.1202 52.3418 31.966 53.1774 31.6306C54.013 31.2952 54.7676 30.7863 55.3911 30.1376C56.498 28.9314 57.0881 27.3406 57.0349 25.7057C57.0392 25.3086 57.0051 24.9121 56.9331 24.5216H50.5446ZM98.2022 25.9932C97.9333 25.1843 97.4215 24.4776 96.7364 23.9692C96.0512 23.4608 95.2258 23.1752 94.3724 23.1514C93.7976 23.1549 93.2295 23.2748 92.7024 23.5037C92.1753 23.7327 91.7002 24.0659 91.3058 24.4834C90.9114 24.9008 90.6059 25.3937 90.4078 25.9323C90.2096 26.4709 90.123 27.0441 90.153 27.6171C90.14 28.2042 90.2458 28.788 90.4639 29.3334C90.682 29.8788 91.008 30.3748 91.4224 30.7916C91.8368 31.2085 92.3311 31.5377 92.8758 31.7595C93.4206 31.9814 94.0045 32.0914 94.5927 32.0829C95.3297 32.087 96.0562 31.9083 96.7069 31.5629C97.3576 31.2174 97.9121 30.7161 98.3207 30.1038L96.7956 29.0889C96.5672 29.4676 96.244 29.7806 95.8578 29.9971C95.4716 30.2136 95.0357 30.3261 94.5927 30.3237C94.137 30.3411 93.6865 30.2214 93.2997 29.9801C92.9129 29.7388 92.6077 29.387 92.4236 28.9704L98.4056 26.5007L98.2022 25.9932ZM92.1017 27.4819C92.0807 27.1568 92.1248 26.8309 92.2314 26.523C92.3381 26.2152 92.5052 25.9317 92.7229 25.6892C92.9407 25.4466 93.2047 25.2498 93.4995 25.1103C93.7944 24.9708 94.1142 24.8914 94.4401 24.8768C94.7795 24.8545 95.118 24.9325 95.4133 25.1009C95.7087 25.2694 95.9478 25.5209 96.1009 25.8241L92.1017 27.4819ZM87.2382 31.8122H89.2039V18.6856H87.2382V31.8122ZM84.0185 24.1494H83.9507C83.6519 23.8253 83.2872 23.5686 82.881 23.3965C82.4747 23.2243 82.0364 23.1408 81.5952 23.1514C80.4417 23.2004 79.3517 23.6923 78.5528 24.5244C77.7539 25.3566 77.3079 26.4646 77.3079 27.6171C77.3079 28.7697 77.7539 29.8777 78.5528 30.7099C79.3517 31.542 80.4417 32.0339 81.5952 32.0829C82.0381 32.0947 82.4783 32.01 82.8851 31.8347C83.2919 31.6594 83.6555 31.3978 83.9507 31.068H84.0185V31.7108C84.0185 33.4194 83.1035 34.3328 81.6291 34.3328C81.1377 34.321 80.661 34.1635 80.2596 33.8803C79.8583 33.5972 79.5505 33.2011 79.3754 32.7426L77.6638 33.4532C77.9864 34.2372 78.5361 34.9072 79.2426 35.3773C79.9491 35.8475 80.78 36.0963 81.6291 36.092C83.9338 36.092 85.8826 34.7388 85.8826 31.4401V23.4219H84.0185V24.1494ZM81.7648 30.3237C81.0854 30.2662 80.4523 29.9561 79.991 29.4549C79.5297 28.9537 79.2736 28.2978 79.2736 27.6171C79.2736 26.9365 79.5297 26.2806 79.991 25.7794C80.4523 25.2782 81.0854 24.9681 81.7648 24.9106C82.1028 24.9271 82.434 25.0113 82.7388 25.1583C83.0435 25.3053 83.3154 25.5121 83.5384 25.7662C83.7613 26.0203 83.9307 26.3167 84.0365 26.6376C84.1423 26.9585 84.1823 27.2974 84.1541 27.634C84.1805 27.9686 84.1391 28.305 84.0322 28.6232C83.9254 28.9414 83.7554 29.2348 83.5323 29.4859C83.3093 29.737 83.0378 29.9406 82.7341 30.0846C82.4304 30.2285 82.1007 30.3098 81.7648 30.3237ZM107.41 18.6858H102.707V31.8122H104.669V26.8391H107.41C107.965 26.8694 108.521 26.7865 109.043 26.5954C109.564 26.4042 110.042 26.1089 110.446 25.7273C110.849 25.3458 111.171 24.8861 111.391 24.3763C111.61 23.8666 111.724 23.3174 111.724 22.7624C111.724 22.2075 111.61 21.6583 111.391 21.1486C111.171 20.6388 110.849 20.1791 110.446 19.7976C110.042 19.416 109.564 19.1207 109.043 18.9295C108.521 18.7384 107.965 18.6555 107.41 18.6858ZM107.461 25.0123H104.669V20.5127H107.461C107.761 20.5065 108.059 20.5601 108.338 20.6704C108.616 20.7807 108.87 20.9454 109.085 21.1549C109.299 21.3645 109.469 21.6146 109.586 21.8906C109.702 22.1666 109.762 22.4631 109.762 22.7625C109.762 23.0619 109.702 23.3583 109.586 23.6344C109.469 23.9104 109.299 24.1605 109.085 24.3701C108.87 24.5796 108.616 24.7443 108.338 24.8546C108.059 24.9649 107.761 25.0185 107.461 25.0123ZM119.59 23.1272C118.874 23.0855 118.161 23.2534 117.539 23.6104C116.917 23.9674 116.413 24.4979 116.088 25.1368L117.831 25.863C118.004 25.5458 118.265 25.2859 118.584 25.1149C118.902 24.9439 119.264 24.8694 119.624 24.9003C120.122 24.8518 120.619 25.0023 121.006 25.3189C121.393 25.6354 121.638 26.0922 121.688 26.589V26.7242C121.058 26.3899 120.355 26.2159 119.641 26.2176C117.763 26.2176 115.852 27.2477 115.852 29.1729C115.87 29.5786 115.97 29.9765 116.145 30.3431C116.32 30.7096 116.567 31.0372 116.872 31.3066C117.176 31.5759 117.532 31.7814 117.918 31.911C118.303 32.0405 118.711 32.0914 119.117 32.0606C119.611 32.0896 120.104 31.9859 120.544 31.7601C120.984 31.5344 121.356 31.195 121.62 30.7772H121.688V31.7904H123.583V26.758C123.583 24.4275 121.84 23.1272 119.59 23.1272ZM119.353 30.3211C118.711 30.3211 117.814 30.0004 117.814 29.2066C117.814 28.1934 118.93 27.8049 119.895 27.8049C120.521 27.7883 121.141 27.9399 121.688 28.244C121.616 28.8134 121.34 29.3374 120.911 29.7193C120.481 30.1011 119.928 30.3149 119.353 30.3211ZM130.485 23.4143L128.235 29.1053H128.167L125.833 23.4143H123.718L127.22 31.3682L125.224 35.7927H127.271L132.667 23.4143H130.485ZM112.807 31.8122H114.769V18.6858H112.807V31.8122Z" fill="white"/>
<path d="M11.3021 8.22717C10.9572 8.63884 10.7831 9.1666 10.8153 9.70231V32.9241C10.783 33.4598 10.9571 33.9876 11.3021 34.3992L11.38 34.4749L24.4114 21.4667V21.1597L11.38 8.15094L11.3021 8.22717Z" fill="url(#paint0_linear_0_1226)"/>
<path d="M28.7549 25.8046L24.4114 21.4667V21.1598L28.7559 16.8229L28.8539 16.8786L34.0004 19.7977C35.4704 20.6314 35.4704 21.9956 34.0004 22.8298L28.8539 25.7489L28.7549 25.8046Z" fill="url(#paint1_linear_0_1226)"/>
<path d="M28.854 25.7484L24.4115 21.3133L11.3022 34.3993C11.6018 34.663 11.9843 34.8138 12.3835 34.8256C12.7827 34.8373 13.1735 34.7093 13.4881 34.4637L28.854 25.7484Z" fill="url(#paint2_linear_0_1226)"/>
<path d="M28.854 16.8781L13.4881 8.16274C13.1735 7.91714 12.7827 7.78914 12.3835 7.80092C11.9843 7.81269 11.6018 7.9635 11.3022 8.22721L24.4115 21.3133L28.854 16.8781Z" fill="url(#paint3_linear_0_1226)"/>
<path opacity="0.2" d="M28.756 25.6507L13.4881 34.3103C13.1856 34.5402 12.8164 34.6656 12.4362 34.6676C12.0561 34.6697 11.6855 34.5482 11.3806 34.3216L11.3022 34.3998L11.3801 34.4755L11.3806 34.475C11.6855 34.7017 12.056 34.8233 12.4362 34.8212C12.8164 34.8192 13.1857 34.6937 13.4881 34.4637L28.854 25.7483L28.756 25.6507Z" fill="black"/>
<path opacity="0.12" d="M11.3021 34.2464C10.9572 33.8347 10.7831 33.3069 10.8153 32.7712V32.9246C10.7831 33.4604 10.9572 33.9881 11.3021 34.3998L11.3805 34.3216L11.3021 34.2464Z" fill="black"/>
<path opacity="0.12" d="M34.0003 22.6758L28.7559 25.6507L28.8538 25.7483L34.0003 22.8292C34.303 22.6981 34.565 22.4883 34.7589 22.2217C34.9529 21.9552 35.0717 21.6416 35.1029 21.3137C35.0379 21.6106 34.9043 21.8884 34.7129 22.1249C34.5215 22.3613 34.2775 22.55 34.0003 22.6758Z" fill="black"/>
<path opacity="0.25" d="M13.4881 8.31661L34.0005 19.9505C34.2778 20.0764 34.5219 20.2651 34.7133 20.5017C34.9047 20.7382 35.0382 21.0161 35.1031 21.3132C35.072 20.9851 34.9533 20.6714 34.7594 20.4047C34.5654 20.1381 34.3033 19.9282 34.0005 19.7971L13.4881 8.1632C12.018 7.3294 10.8154 8.02198 10.8154 9.70281V9.85621C10.8154 8.17549 12.018 7.48291 13.4881 8.31661Z" fill="white"/>
</g>
<defs>
<linearGradient id="paint0_linear_0_1226" x1="23.2557" y1="9.45746" x2="5.63433" y2="27.11" gradientUnits="userSpaceOnUse">
<stop stop-color="#00A0FF"/>
<stop offset="0.00657" stop-color="#00A1FF"/>
<stop offset="0.2601" stop-color="#00BEFF"/>
<stop offset="0.5122" stop-color="#00D2FF"/>
<stop offset="0.7604" stop-color="#00DFFF"/>
<stop offset="1" stop-color="#00E3FF"/>
</linearGradient>
<linearGradient id="paint1_linear_0_1226" x1="35.9144" y1="21.3138" x2="10.4629" y2="21.3138" gradientUnits="userSpaceOnUse">
<stop stop-color="#FFE000"/>
<stop offset="0.4087" stop-color="#FFBD00"/>
<stop offset="0.7754" stop-color="#FFA500"/>
<stop offset="1" stop-color="#FF9C00"/>
</linearGradient>
<linearGradient id="paint2_linear_0_1226" x1="26.44" y1="23.7231" x2="2.54399" y2="47.6614" gradientUnits="userSpaceOnUse">
<stop stop-color="#FF3A44"/>
<stop offset="1" stop-color="#C31162"/>
</linearGradient>
<linearGradient id="paint3_linear_0_1226" x1="8.00146" y1="0.49734" x2="18.672" y2="11.1868" gradientUnits="userSpaceOnUse">
<stop stop-color="#32A071"/>
<stop offset="0.0685" stop-color="#2DA771"/>
<stop offset="0.4762" stop-color="#15CF74"/>
<stop offset="0.8009" stop-color="#06E775"/>
<stop offset="1" stop-color="#00F076"/>
</linearGradient>
<clipPath id="clip0_0_1226">
<rect width="142" height="42" fill="white" transform="translate(0.325439 0.312195)"/>
</clipPath>
</defs>
</svg>
