<svg width="51" height="51" viewBox="0 0 51 51" fill="none" xmlns="http://www.w3.org/2000/svg">
<rect x="0.657227" y="0.948242" width="50" height="50" rx="10" fill="#50C878"/>
<path d="M14.4823 30.3954L12.8854 20.0161C12.8595 19.8461 12.8847 19.6722 12.9579 19.5166C13.0311 19.361 13.1489 19.2307 13.2965 19.1423C13.444 19.0539 13.6145 19.0114 13.7863 19.0202C13.958 19.0291 14.1233 19.0888 14.2609 19.1919L19.2362 22.9229C19.3655 23.0199 19.5132 23.0895 19.6703 23.1275C19.8274 23.1654 19.9905 23.1709 20.1499 23.1437C20.3092 23.1164 20.4612 23.0569 20.5967 22.9688C20.7323 22.8808 20.8484 22.766 20.9381 22.6315L25.0803 16.4155C25.1813 16.2645 25.3179 16.1406 25.4782 16.055C25.6385 15.9694 25.8173 15.9246 25.9991 15.9246C26.1807 15.9246 26.3596 15.9694 26.5199 16.055C26.6802 16.1406 26.8168 16.2645 26.9178 16.4155L31.0601 22.628C31.1497 22.7625 31.2658 22.8773 31.4014 22.9653C31.5369 23.0534 31.6889 23.1129 31.8482 23.1402C32.0076 23.1674 32.1707 23.1619 32.3278 23.124C32.4849 23.086 32.6327 23.0164 32.7619 22.9194L37.7372 19.1884C37.8748 19.0853 38.0401 19.0256 38.2118 19.0167C38.3836 19.0079 38.5541 19.0504 38.7016 19.1388C38.8492 19.2272 38.967 19.3575 39.0402 19.5131C39.1134 19.6687 39.1387 19.8426 39.1127 20.0126L37.5158 30.3919L14.4823 30.3954ZM14.4823 32.3151H37.5176V34.9533C37.5176 35.111 37.4865 35.2673 37.4261 35.413C37.3657 35.5588 37.2772 35.6912 37.1657 35.8028C37.0541 35.9143 36.9217 36.0028 36.7759 36.0632C36.6302 36.1236 36.4739 36.1546 36.3162 36.1546H15.6837C15.5259 36.1546 15.3697 36.1236 15.2239 36.0632C15.0782 36.0028 14.9457 35.9143 14.8342 35.8028C14.6089 35.5775 14.4823 35.2719 14.4823 34.9533V32.3151Z" fill="white"/>
</svg>
