<svg width="51" height="51" viewBox="0 0 51 51" fill="none" xmlns="http://www.w3.org/2000/svg">
<rect x="0.657227" y="0.948242" width="50" height="50" rx="10" fill="#50C878"/>
<g clip-path="url(#clip0_0_1024)">
<path d="M16.593 27.5644C16.593 26.9328 16.3469 26.362 15.954 25.9263C16.3469 25.4905 16.593 24.9198 16.593 24.2882C16.593 22.9332 15.4908 21.831 14.1359 21.831H11.6787V30.0215H14.1359C15.4908 30.0215 16.593 28.9193 16.593 27.5644ZM13.3168 23.4691H14.1359C14.5878 23.4691 14.9549 23.8363 14.9549 24.2882C14.9549 24.7401 14.5878 25.1072 14.1359 25.1072H13.3168V23.4691ZM13.3168 26.7453H14.1359C14.5878 26.7453 14.9549 27.1125 14.9549 27.5644C14.9549 28.0163 14.5878 28.3834 14.1359 28.3834H13.3168V26.7453ZM22.3479 24.2882C22.3479 22.9332 21.2457 21.831 19.8908 21.831H17.4336V30.0215H19.0717V26.7453H19.3845L21.1625 30.3015L22.6279 29.5688L21.0611 26.4352C21.8236 26.0177 22.3479 25.2172 22.3479 24.2882ZM19.0717 25.1072V23.4691H19.8908C20.3427 23.4691 20.7098 23.8363 20.7098 24.2882C20.7098 24.7401 20.3427 25.1072 19.8908 25.1072H19.0717ZM28.0813 30.0215V24.2882C28.0813 22.9332 26.9791 21.831 25.6242 21.831C24.2692 21.831 23.167 22.9332 23.167 24.2882V30.0215H24.8051V26.7453H26.4432V30.0215H28.0813ZM24.8051 25.1072V24.2882C24.8051 23.8363 25.1723 23.4691 25.6242 23.4691C26.0761 23.4691 26.4432 23.8363 26.4432 24.2882V25.1072H24.8051ZM37.1786 21.831H34.6338V30.0215H37.1786C38.5336 30.0215 39.6358 28.9193 39.6358 27.5644V24.2882C39.6358 22.9332 38.5336 21.831 37.1786 21.831ZM37.9977 27.5644C37.9977 28.0163 37.6305 28.3834 37.1786 28.3834H36.2719V23.4691H37.1786C37.6305 23.4691 37.9977 23.8363 37.9977 24.2882V27.5644ZM31.5367 30.0215H33.8147V21.831H32.1766V25.8255L31.1784 21.831H28.9004V30.0215H30.5385V26.0271L31.5367 30.0215ZM36.0272 18.5548C36.0206 18.5059 36.0073 18.4585 36.0095 18.4076L36.0087 18.0621C36.0343 17.3926 35.7735 16.7335 35.2952 16.2568C34.8169 15.7769 34.1546 15.5161 33.5195 15.5409H33.1236C32.802 15.5329 32.4749 15.3465 32.3398 14.9874L32.2102 14.6906C31.9782 14.0459 31.4767 13.5333 30.868 13.3005C30.2633 13.0349 29.5587 13.0421 28.9364 13.3133L28.5892 13.4628C28.2653 13.6044 27.9022 13.5324 27.6446 13.258L27.4126 13.0277C26.5232 12.0359 24.6948 12.0679 23.8661 12.9957L23.5846 13.2772C23.347 13.5316 22.9839 13.6036 22.6559 13.4612L22.3176 13.3164C21.6889 13.0389 20.9826 13.0341 20.4155 13.2852C19.7716 13.5332 19.2701 14.0459 19.0565 14.6434L18.8941 15.0241C18.7734 15.3465 18.4502 15.5593 18.1055 15.5409L17.76 15.5417C17.0737 15.5209 16.4322 15.7776 15.9547 16.2551C15.4748 16.7335 15.214 17.3925 15.2388 18.0308L15.2396 18.446C15.2412 18.4799 15.2107 18.5188 15.2063 18.5548H11.6787V20.1929H39.6358V18.5548H36.0272ZM11.6787 31.6597V33.2978H15.2211C15.2277 33.3466 15.241 33.394 15.2388 33.4449L15.2396 33.7905C15.214 34.4599 15.4748 35.119 15.9531 35.5958C16.4314 36.0757 17.0793 36.322 17.7288 36.3116H18.1247C18.4047 36.3036 18.7726 36.5052 18.9086 36.8651L19.0381 37.1619C19.2701 37.8066 19.7716 38.3193 20.3803 38.5521C20.9842 38.8176 21.6896 38.8112 22.312 38.5393L22.6591 38.3897C22.9854 38.2481 23.3462 38.3202 23.6037 38.5945L23.8357 38.8249C24.2804 39.3208 24.9323 39.6047 25.6242 39.6047C26.316 39.6047 26.9679 39.3208 27.3822 38.8569L27.6638 38.5753C27.9021 38.321 28.2661 38.2482 28.5924 38.3914L28.9307 38.5361C29.557 38.8121 30.2633 38.8169 30.8328 38.5673C31.4767 38.3193 31.9782 37.8066 32.1918 37.2091L32.3542 36.8284C32.475 36.5061 32.7741 36.2981 33.1428 36.3117L33.4883 36.3108C34.1858 36.3508 34.8169 36.0757 35.2937 35.5974C35.7736 35.1191 36.0343 34.46 36.0095 33.8217L36.0087 33.4065C36.0071 33.3726 36.0376 33.3337 36.042 33.2978H39.6357V31.6597H11.6787Z" fill="white"/>
</g>
<defs>
<clipPath id="clip0_0_1024">
<rect width="28" height="28" fill="white" transform="translate(11.6572 11.9482)"/>
</clipPath>
</defs>
</svg>
