<svg width="51" height="51" viewBox="0 0 51 51" fill="none" xmlns="http://www.w3.org/2000/svg">
<rect x="0.657227" y="0.507568" width="50" height="50" rx="10" fill="#50C878"/>
<g clip-path="url(#clip0_0_762)">
<path d="M16.4264 24.2207C24.0893 21.4963 26.8916 18.154 27.8931 16.3345L26.9781 15.9414C26.7309 15.8351 26.7019 15.4852 26.9481 15.3484L30.4684 13.3928C30.6579 13.2875 30.8952 13.3895 30.9492 13.5994L31.9537 17.4992C32.0239 17.7719 31.75 17.9919 31.5027 17.8854L30.4025 17.4127C27.9093 20.5751 23.8342 24.1704 16.4264 24.2207ZM33.0156 20.8412H34.0033V33.927C34.0033 34.1077 34.1507 34.2551 34.3314 34.2551H37.1476C37.3283 34.2551 37.4757 34.1077 37.4757 33.927V20.8412H38.4634C38.7945 20.8412 38.9794 20.4609 38.7751 20.2005L36.363 17.125C36.0458 16.7207 35.4332 16.7207 35.116 17.125L32.7039 20.2005C32.4996 20.461 32.6846 20.8412 33.0156 20.8412ZM28.174 23.4062C27.9933 23.4062 27.8459 23.5536 27.8459 23.7344V33.927C27.8459 34.1078 27.9933 34.2551 28.174 34.2551H30.9901C31.1709 34.2551 31.3183 34.1078 31.3183 33.927V23.7344C31.3183 23.5536 31.1709 23.4062 30.9901 23.4062H28.174ZM22.0166 25.9712C21.8359 25.9712 21.6885 26.1186 21.6885 26.2994V33.927C21.6885 34.1078 21.8359 34.2551 22.0166 34.2551H24.8328C25.0135 34.2551 25.1609 34.1078 25.1609 33.927V26.2994C25.1609 26.1187 25.0135 25.9712 24.8328 25.9712H22.0166ZM38.492 36.2635H13.5228V14.9063C13.5228 14.5195 13.2093 14.2059 12.8225 14.2059C12.4356 14.2059 12.1221 14.5195 12.1221 14.9063V36.9638C12.1221 37.3506 12.4356 37.6642 12.8225 37.6642H38.492C38.8788 37.6642 39.1924 37.3506 39.1924 36.9638C39.1924 36.577 38.8788 36.2635 38.492 36.2635ZM15.8593 34.2551H18.6754C18.8562 34.2551 19.0036 34.1077 19.0036 33.927V28.8644C19.0036 28.6836 18.8562 28.5363 18.6754 28.5363H15.8593C15.6786 28.5363 15.5312 28.6836 15.5312 28.8644V33.927C15.5312 34.1077 15.6786 34.2551 15.8593 34.2551Z" fill="white"/>
</g>
<defs>
<clipPath id="clip0_0_762">
<rect width="28" height="28" fill="white" transform="translate(11.6572 11.5076)"/>
</clipPath>
</defs>
</svg>
