<svg width="51" height="51" viewBox="0 0 51 51" fill="none" xmlns="http://www.w3.org/2000/svg">
<rect x="0.657227" y="0.948242" width="50" height="50" rx="10" fill="#50C878"/>
<g clip-path="url(#clip0_0_1013)">
<path d="M12.2405 24.7816C12.4956 24.7819 12.75 24.7569 13 24.7069C12.8805 24.1565 12.8215 23.5948 12.8239 23.0316C12.8239 22.5674 13.0082 22.1223 13.3364 21.7941C13.6646 21.466 14.1097 21.2816 14.5739 21.2816C15.038 21.2816 15.4831 21.466 15.8113 21.7941C16.1395 22.1223 16.3239 22.5674 16.3239 23.0316C16.2616 23.5645 16.0546 24.0702 15.7253 24.4939C15.3961 24.9176 14.9571 25.243 14.456 25.4349C14.6091 25.7903 14.8025 26.127 15.0324 26.4382C16.864 23.4014 20.9322 21.2816 25.6572 21.2816C28.2737 21.2531 30.8468 21.9501 33.0912 23.2952C33.8019 22.7454 34.6753 22.4474 35.5739 22.4482C35.7286 22.4482 35.877 22.5097 35.9864 22.6191C36.0957 22.7285 36.1572 22.8769 36.1572 23.0316C36.1547 23.84 35.9101 24.6292 35.4549 25.2972C36.2096 26.1598 36.7635 27.1791 37.0765 28.2816H37.3239C37.9425 28.2822 38.5357 28.5282 38.9731 28.9657C39.4106 29.4031 39.6566 29.9963 39.6572 30.6149C39.6592 31.2497 39.4986 31.8745 39.1906 32.4296C38.8826 32.9847 38.4376 33.4517 37.8979 33.7859L33.8239 36.3234V39.3649C33.8239 39.5196 33.7624 39.668 33.653 39.7774C33.5436 39.8868 33.3953 39.9482 33.2405 39.9482H30.9072C30.799 39.9482 30.6929 39.9181 30.6008 39.8613C30.5087 39.8044 30.4342 39.723 30.3857 39.6262L29.695 38.2449C27.0502 38.957 24.2642 38.957 21.6194 38.2449L20.9287 39.6262C20.8802 39.723 20.8058 39.8044 20.7137 39.8613C20.6216 39.9181 20.5154 39.9482 20.4072 39.9482H18.0739C17.9192 39.9482 17.7708 39.8868 17.6614 39.7774C17.552 39.668 17.4905 39.5196 17.4905 39.3649V36.2767C16.4553 35.5863 15.5983 34.6603 14.99 33.5748C14.3816 32.4893 14.0391 31.275 13.9905 30.0316C13.9941 29.1937 14.1543 28.364 14.463 27.5851C13.9955 27.0651 13.6199 26.4694 13.3524 25.8234C12.9875 25.9061 12.6146 25.948 12.2405 25.9482C12.0858 25.9482 11.9375 25.8868 11.8281 25.7774C11.7187 25.668 11.6572 25.5196 11.6572 25.3649C11.6572 25.2102 11.7187 25.0618 11.8281 24.9524C11.9375 24.843 12.0858 24.7816 12.2405 24.7816ZM33.8239 28.8649C33.9392 28.8649 34.052 28.8307 34.148 28.7666C34.2439 28.7025 34.3187 28.6114 34.3628 28.5048C34.407 28.3982 34.4185 28.2809 34.396 28.1678C34.3735 28.0546 34.3179 27.9507 34.2364 27.8691C34.1548 27.7875 34.0508 27.732 33.9377 27.7095C33.8245 27.6869 33.7072 27.6985 33.6006 27.7426C33.4941 27.7868 33.4029 27.8616 33.3389 27.9575C33.2748 28.0534 33.2405 28.1662 33.2405 28.2816C33.2405 28.4363 33.302 28.5847 33.4114 28.6941C33.5208 28.8035 33.6692 28.8649 33.8239 28.8649ZM21.0197 24.9636C21.058 25.0803 21.1323 25.182 21.2318 25.254C21.3313 25.3261 21.451 25.3649 21.5739 25.3649C21.6357 25.365 21.6972 25.3551 21.7559 25.3357C24.3062 24.6101 27.0083 24.6101 29.5585 25.3357C29.7049 25.3818 29.8635 25.3683 30 25.2982C30.1366 25.2282 30.2399 25.1071 30.2878 24.9613C30.3357 24.8155 30.3242 24.6568 30.2558 24.5194C30.1875 24.382 30.0677 24.2771 29.9225 24.2274C27.1354 23.4264 24.179 23.4264 21.3919 24.2274C21.245 24.2755 21.1231 24.3799 21.0531 24.5177C20.9831 24.6555 20.9707 24.8154 21.0185 24.9624L21.0197 24.9636ZM14.1084 24.2986C14.3711 24.1857 14.6033 24.0119 14.7856 23.7916C14.968 23.5713 15.0954 23.3108 15.1572 23.0316C15.1572 22.8769 15.0957 22.7285 14.9864 22.6191C14.877 22.5097 14.7286 22.4482 14.5739 22.4482C14.4192 22.4482 14.2708 22.5097 14.1614 22.6191C14.052 22.7285 13.9905 22.8769 13.9905 23.0316C13.9892 23.4563 14.0286 23.8802 14.1084 24.2974V24.2986ZM25.0739 20.1149C24.2663 20.1149 23.4768 19.8754 22.8053 19.4267C22.1338 18.9781 21.6104 18.3403 21.3014 17.5942C20.9923 16.8481 20.9114 16.027 21.069 15.235C21.2266 14.4429 21.6155 13.7153 22.1865 13.1442C22.7576 12.5732 23.4852 12.1843 24.2773 12.0267C25.0693 11.8691 25.8904 11.95 26.6365 12.2591C27.3826 12.5681 28.0204 13.0915 28.469 13.763C28.9177 14.4345 29.1572 15.224 29.1572 16.0316C29.156 17.1142 28.7254 18.1521 27.9599 18.9176C27.1944 19.6831 26.1565 20.1137 25.0739 20.1149ZM25.6572 14.8649C25.6572 14.7102 25.5958 14.5618 25.4864 14.4524C25.377 14.343 25.2286 14.2816 25.0739 14.2816C24.9192 14.2816 24.7708 14.343 24.6614 14.4524C24.552 14.5618 24.4905 14.7102 24.4905 14.8649V17.1982C24.4905 17.353 24.552 17.5013 24.6614 17.6107C24.7708 17.7201 24.9192 17.7816 25.0739 17.7816C25.2286 17.7816 25.377 17.7201 25.4864 17.6107C25.5958 17.5013 25.6572 17.353 25.6572 17.1982V14.8649Z" fill="white"/>
</g>
<defs>
<clipPath id="clip0_0_1013">
<rect width="28" height="28" fill="white" transform="matrix(-1 0 0 1 39.6572 11.9482)"/>
</clipPath>
</defs>
</svg>
