<svg width="40" height="41" viewBox="0 0 40 41" fill="none" xmlns="http://www.w3.org/2000/svg">
<rect y="0.475464" width="40" height="40" rx="20" fill="#01BD76"/>
<path fill-rule="evenodd" clip-rule="evenodd" d="M18.0502 23.6382V17.9005L23.0189 20.7695L18.0502 23.6382ZM29.1259 16.1659C28.906 15.3431 28.258 14.695 27.4351 14.475C25.9435 14.0755 19.9627 14.0755 19.9627 14.0755C19.9627 14.0755 13.982 14.0755 12.4905 14.475C11.6676 14.695 11.0196 15.3431 10.7996 16.1659C10.3999 17.6575 10.3999 20.7693 10.3999 20.7693C10.3999 20.7693 10.3999 23.8813 10.7996 25.3728C11.0196 26.1956 11.6676 26.8439 12.4905 27.0637C13.982 27.4634 19.9627 27.4634 19.9627 27.4634C19.9627 27.4634 25.9435 27.4634 27.4351 27.0637C28.258 26.8439 28.906 26.1956 29.1259 25.3728C29.5256 23.8813 29.5256 20.7693 29.5256 20.7693C29.5256 20.7693 29.5256 17.6575 29.1259 16.1659Z" fill="white"/>
</svg>
